<svg version="1.1" xmlns="http://www.w3.org/2000/svg" viewBox="0 0 1722.672377603237 733.6266384727278" width="1722.672377603237" height="733.6266384727278">
  <!-- svg-source:excalidraw -->
  
  <defs>
    <style class="style-fonts">
      @font-face {
        font-family: "Virgil";
        src: url("https://excalidraw.com/Virgil.woff2");
      }
      @font-face {
        font-family: "Cascadia";
        src: url("https://excalidraw.com/Cascadia.woff2");
      }
      @font-face {
        font-family: "Assistant";
        src: url("https://excalidraw.com/Assistant-Regular.woff2");
      }
    </style>
    
  </defs>
  <rect x="0" y="0" width="1722.672377603237" height="733.6266384727278" fill="#ffffff"></rect><g stroke-linecap="round" transform="translate(211.33394043242356 10) rotate(0 44.94337665867715 47.37268512685114)"><path d="M22.47 0 C43.03 3.83, 55.15 3.68, 67.42 0 M22.47 0 C34.26 -0.3, 44.82 -0.85, 67.42 0 M67.42 0 C84.13 -2.18, 93.33 9.35, 89.89 22.47 M67.42 0 C79.39 -3.95, 87.04 3.03, 89.89 22.47 M89.89 22.47 C90.81 42.54, 91.36 62.73, 89.89 72.27 M89.89 22.47 C88.4 33.27, 89.65 45.13, 89.89 72.27 M89.89 72.27 C92.11 86.71, 80.35 96.03, 67.42 94.75 M89.89 72.27 C89.98 89.46, 80.62 97.28, 67.42 94.75 M67.42 94.75 C52.48 97.02, 29.66 97.32, 22.47 94.75 M67.42 94.75 C53.77 93.66, 44.35 94.68, 22.47 94.75 M22.47 94.75 C6.43 94.61, 1.25 90.36, 0 72.27 M22.47 94.75 C7.41 98.96, -0.8 87.79, 0 72.27 M0 72.27 C3.04 56.68, -2.04 38.67, 0 22.47 M0 72.27 C-1 55.86, -0.48 41.83, 0 22.47 M0 22.47 C3.8 10.92, 6.84 -0.33, 22.47 0 M0 22.47 C2.18 6.66, 8.53 -1.62, 22.47 0" stroke="#1e1e1e" stroke-width="4" fill="none"></path></g><g stroke-linecap="round" transform="translate(309.7234471503875 11.214665818217327) rotate(0 44.94337665867715 47.37268512685114)"><path d="M22.47 0 C33.13 1.08, 45.59 2.03, 67.42 0 M22.47 0 C32.75 -1.85, 46.01 -1.76, 67.42 0 M67.42 0 C79.94 0.7, 92.33 6.32, 89.89 22.47 M67.42 0 C84.18 -1.9, 89.38 7.33, 89.89 22.47 M89.89 22.47 C92.72 35.26, 89.5 52.81, 89.89 72.27 M89.89 22.47 C89.46 36.29, 90.85 52.17, 89.89 72.27 M89.89 72.27 C86.08 88.13, 85.8 91.67, 67.42 94.75 M89.89 72.27 C85.8 88.31, 80.9 96.12, 67.42 94.75 M67.42 94.75 C54.29 97.9, 34.06 91.73, 22.47 94.75 M67.42 94.75 C56.63 96.04, 43.17 95.18, 22.47 94.75 M22.47 94.75 C7.28 91.16, -0.58 87.5, 0 72.27 M22.47 94.75 C6.25 95.87, 4.26 88.8, 0 72.27 M0 72.27 C-1.08 55.09, -2.22 37.43, 0 22.47 M0 72.27 C1.13 51.59, 1.17 34.97, 0 22.47 M0 22.47 C0.21 9.33, 9.85 2.27, 22.47 0 M0 22.47 C2.21 11.94, 9.49 -1.89, 22.47 0" stroke="#1e1e1e" stroke-width="4" fill="none"></path></g><g stroke-linecap="round" transform="translate(411.1495720773737 12.733021259264206) rotate(0 44.94337665867715 47.37268512685114)"><path d="M22.47 0 C32.8 -3.67, 45.24 -4.08, 67.42 0 M22.47 0 C35.15 -0.86, 44.84 1.1, 67.42 0 M67.42 0 C83.95 -3.51, 89.08 4.04, 89.89 22.47 M67.42 0 C82.33 0.89, 92.11 7.29, 89.89 22.47 M89.89 22.47 C87.79 35.23, 92.46 45.98, 89.89 72.27 M89.89 22.47 C89.35 34.2, 89.28 45.82, 89.89 72.27 M89.89 72.27 C93.72 84.05, 84.45 94.54, 67.42 94.75 M89.89 72.27 C91.15 83.9, 78.83 92.6, 67.42 94.75 M67.42 94.75 C50.5 92.57, 28.12 93.53, 22.47 94.75 M67.42 94.75 C53.41 93.11, 40.18 93.2, 22.47 94.75 M22.47 94.75 C11.44 97.65, 1.66 88.56, 0 72.27 M22.47 94.75 C10.2 99.2, 2.67 85.29, 0 72.27 M0 72.27 C-1.33 58.03, -1.82 52.17, 0 22.47 M0 72.27 C0.07 57.51, -0.58 40.8, 0 22.47 M0 22.47 C2.1 3.49, 10.68 1.34, 22.47 0 M0 22.47 C-1.48 4.77, 7.43 2.44, 22.47 0" stroke="#1e1e1e" stroke-width="4" fill="none"></path></g><g stroke-linecap="round" transform="translate(211.33394094704227 107.4783919693582) rotate(0 44.94337665867715 47.37268512685114)"><path d="M22.47 0 C37.25 4.23, 54.3 2.9, 67.42 0 M22.47 0 C33.98 -1.33, 41.68 0.85, 67.42 0 M67.42 0 C81.27 -3.67, 89.59 4.49, 89.89 22.47 M67.42 0 C81.97 3.37, 93.91 5.42, 89.89 22.47 M89.89 22.47 C91.71 36.17, 85.52 58.63, 89.89 72.27 M89.89 22.47 C92.7 39.03, 92.48 52.04, 89.89 72.27 M89.89 72.27 C85.91 88.44, 86.06 97.76, 67.42 94.75 M89.89 72.27 C93.45 86.66, 82.49 94.91, 67.42 94.75 M67.42 94.75 C46.98 93.96, 28.79 91.09, 22.47 94.75 M67.42 94.75 C52.13 95.76, 36.61 96.22, 22.47 94.75 M22.47 94.75 C8.5 95.66, 0.95 84.29, 0 72.27 M22.47 94.75 C3.47 93.4, -2.59 91.84, 0 72.27 M0 72.27 C-1.42 58.94, -4.32 39.1, 0 22.47 M0 72.27 C-0.88 59.5, -0.38 47.7, 0 22.47 M0 22.47 C-0.13 8.29, 9.28 3.05, 22.47 0 M0 22.47 C-0.67 3.54, 5.79 -2.56, 22.47 0" stroke="#1e1e1e" stroke-width="4" fill="none"></path></g><g stroke-linecap="round" transform="translate(411.1495725919922 110.21141322860785) rotate(0 44.94337665867715 47.37268512685114)"><path d="M22.47 0 C36.75 -4.28, 61.07 2.91, 67.42 0 M22.47 0 C34.17 -2.57, 46.84 -2.24, 67.42 0 M67.42 0 C82.02 2.93, 93.38 5.69, 89.89 22.47 M67.42 0 C84.07 -3.62, 89.1 10.49, 89.89 22.47 M89.89 22.47 C89.13 37.16, 89.12 48.62, 89.89 72.27 M89.89 22.47 C88.75 41.61, 92.57 61.08, 89.89 72.27 M89.89 72.27 C92.98 86.74, 82.48 94.89, 67.42 94.75 M89.89 72.27 C94.3 83.18, 79.35 91.71, 67.42 94.75 M67.42 94.75 C56.25 97.45, 40.92 95.18, 22.47 94.75 M67.42 94.75 C52.17 95.86, 36.4 93.92, 22.47 94.75 M22.47 94.75 C3.99 93.58, -2.25 91.24, 0 72.27 M22.47 94.75 C7.87 99.29, -0.24 86.75, 0 72.27 M0 72.27 C-1.43 58.74, -1.62 37.57, 0 22.47 M0 72.27 C-0.36 59.35, 0.6 47.15, 0 22.47 M0 22.47 C-0.58 4.06, 6.02 -2.23, 22.47 0 M0 22.47 C0.63 8.35, 4.02 -3.64, 22.47 0" stroke="#1e1e1e" stroke-width="4" fill="none"></path></g><g stroke-linecap="round" transform="translate(209.81563118002805 207.68980445480702) rotate(0 44.94337665867715 47.37268512685114)"><path d="M22.47 0 C36.83 -3.46, 48.51 0.59, 67.42 0 M22.47 0 C35.05 0.85, 52.5 -0.26, 67.42 0 M67.42 0 C79.82 1.27, 91.23 6.05, 89.89 22.47 M67.42 0 C78.53 4.32, 93.52 4.34, 89.89 22.47 M89.89 22.47 C86.69 42.38, 93.29 55.73, 89.89 72.27 M89.89 22.47 C89.33 39.55, 90.78 60.41, 89.89 72.27 M89.89 72.27 C92.5 86.43, 81.21 96.39, 67.42 94.75 M89.89 72.27 C88.82 85.53, 82.33 94.63, 67.42 94.75 M67.42 94.75 C55 92.21, 37.3 94.13, 22.47 94.75 M67.42 94.75 C49.56 94.09, 33.45 96.05, 22.47 94.75 M22.47 94.75 C10.31 97.53, -0.89 84.85, 0 72.27 M22.47 94.75 C3.5 96.69, 4.26 89.11, 0 72.27 M0 72.27 C-0.32 59.84, -2.44 51.22, 0 22.47 M0 72.27 C-0.21 52.82, 1.27 37.66, 0 22.47 M0 22.47 C-1.5 10.53, 4.13 -1.67, 22.47 0 M0 22.47 C2.91 6.46, 3.12 -1.26, 22.47 0" stroke="#1e1e1e" stroke-width="4" fill="none"></path></g><g stroke-linecap="round" transform="translate(409.6312628249784 210.42282571407122) rotate(0 44.94337665867715 47.37268512685114)"><path d="M22.47 0 C32.48 1.5, 39.21 -3.36, 67.42 0 M22.47 0 C35.59 0.95, 51.96 -0.41, 67.42 0 M67.42 0 C79.04 3.76, 93.05 4.75, 89.89 22.47 M67.42 0 C83.93 2.57, 92.76 3.17, 89.89 22.47 M89.89 22.47 C93.84 40.65, 94.51 59.89, 89.89 72.27 M89.89 22.47 C91.75 32.25, 89.85 43.68, 89.89 72.27 M89.89 72.27 C88.96 85.75, 82.33 94.64, 67.42 94.75 M89.89 72.27 C90.61 90.29, 79.45 96.79, 67.42 94.75 M67.42 94.75 C58.69 91.61, 47.09 91.73, 22.47 94.75 M67.42 94.75 C57.95 96.5, 45.22 93.9, 22.47 94.75 M22.47 94.75 C4.02 96.44, 3.71 88.87, 0 72.27 M22.47 94.75 C5.24 92.93, -4.47 86.43, 0 72.27 M0 72.27 C3.1 53.39, -0.98 39.9, 0 22.47 M0 72.27 C-0.9 62.69, -1.83 49.22, 0 22.47 M0 22.47 C2.53 6.6, 3.69 -1.09, 22.47 0 M0 22.47 C0.72 4.8, 2.98 -3.09, 22.47 0" stroke="#1e1e1e" stroke-width="4" fill="none"></path></g><g stroke-linecap="round" transform="translate(211.33394084021552 416.3116928141171) rotate(0 44.94337665867715 47.37268512685114)"><path d="M22.47 0 C36.97 0.68, 41.1 -0.64, 67.42 0 M22.47 0 C35.11 -2.81, 45.11 -0.5, 67.42 0 M67.42 0 C83.12 0.9, 90.84 9.17, 89.89 22.47 M67.42 0 C84.54 1.41, 88.18 5.93, 89.89 22.47 M89.89 22.47 C86.96 30.95, 87.84 43.52, 89.89 72.27 M89.89 22.47 C90.01 36.95, 91.3 51.3, 89.89 72.27 M89.89 72.27 C87 84.38, 84.69 98.37, 67.42 94.75 M89.89 72.27 C89.41 88.73, 84.07 92.67, 67.42 94.75 M67.42 94.75 C52.22 98.23, 34.56 97.37, 22.47 94.75 M67.42 94.75 C55.81 95.88, 44.56 93.83, 22.47 94.75 M22.47 94.75 C9.2 96.51, 2.9 84.05, 0 72.27 M22.47 94.75 C3.19 94.2, -1.07 84.6, 0 72.27 M0 72.27 C-4.61 54.85, -0.99 42.46, 0 22.47 M0 72.27 C0.47 55.32, -1.25 42.26, 0 22.47 M0 22.47 C-3.61 11.48, 4.85 0.56, 22.47 0 M0 22.47 C0.36 5.68, 10.64 4.12, 22.47 0" stroke="#1e1e1e" stroke-width="4" fill="none"></path></g><g stroke-linecap="round" transform="translate(411.1495724851659 419.04471407338133) rotate(0 44.94337665867715 47.37268512685114)"><path d="M22.47 0 C34.53 2.13, 53.55 2.18, 67.42 0 M22.47 0 C31.9 0.3, 41.08 0.69, 67.42 0 M67.42 0 C84.26 1.23, 88.4 6.13, 89.89 22.47 M67.42 0 C78.65 -2.82, 94 4.82, 89.89 22.47 M89.89 22.47 C88.62 35.84, 90.7 45.88, 89.89 72.27 M89.89 22.47 C88.97 37.65, 91.56 57.52, 89.89 72.27 M89.89 72.27 C89.47 88.54, 83.85 92.94, 67.42 94.75 M89.89 72.27 C91.4 85.94, 82.25 94.48, 67.42 94.75 M67.42 94.75 C48.18 97.5, 29.94 95.03, 22.47 94.75 M67.42 94.75 C50.91 95.48, 34.14 93, 22.47 94.75 M22.47 94.75 C3.75 94.27, -0.93 84.94, 0 72.27 M22.47 94.75 C7.11 98.53, 4.4 82.89, 0 72.27 M0 72.27 C0.74 63.48, 0.14 51.8, 0 22.47 M0 72.27 C-1.49 62.17, -1.01 48.36, 0 22.47 M0 22.47 C0.31 5.92, 10.23 3.58, 22.47 0 M0 22.47 C-0.83 5.36, 7.64 0.01, 22.47 0" stroke="#1e1e1e" stroke-width="4" fill="none"></path></g><g stroke-linecap="round" transform="translate(208.2973216751816 524.7221675034307) rotate(0 44.94337665867715 47.37268512685114)"><path d="M22.47 0 C31.23 2.69, 40.84 -0.39, 67.42 0 M22.47 0 C33.75 1.09, 42.88 -0.74, 67.42 0 M67.42 0 C80.92 -0.47, 92.05 8.96, 89.89 22.47 M67.42 0 C81.43 -4.02, 94.23 4.18, 89.89 22.47 M89.89 22.47 C89.33 37.35, 93.45 55.09, 89.89 72.27 M89.89 22.47 C90.25 32.38, 89.81 45.1, 89.89 72.27 M89.89 72.27 C90.82 90.48, 80.46 92.28, 67.42 94.75 M89.89 72.27 C90.68 86.62, 83.31 97.29, 67.42 94.75 M67.42 94.75 C50.57 95.6, 31.93 98.27, 22.47 94.75 M67.42 94.75 C51.42 94.23, 33.93 93.27, 22.47 94.75 M22.47 94.75 C10.88 95.15, 2.96 90.84, 0 72.27 M22.47 94.75 C7.02 92.79, -1.95 88.61, 0 72.27 M0 72.27 C3.07 53.77, -0.51 43.75, 0 22.47 M0 72.27 C-0.81 53.07, 1.28 38.31, 0 22.47 M0 22.47 C0.06 11.27, 5.49 -3.68, 22.47 0 M0 22.47 C-3.35 5.9, 6.05 1.5, 22.47 0" stroke="#1e1e1e" stroke-width="4" fill="none"></path></g><g stroke-linecap="round" transform="translate(408.11295332013196 527.4551887626949) rotate(0 44.94337665867715 47.37268512685114)"><path d="M22.47 0 C35.95 -3.46, 54.4 1.87, 67.42 0 M22.47 0 C37.41 0.14, 54.91 1.12, 67.42 0 M67.42 0 C81.55 -3.49, 93.67 4.61, 89.89 22.47 M67.42 0 C84.53 -0.47, 86.58 6.97, 89.89 22.47 M89.89 22.47 C88.03 32.82, 94.61 48, 89.89 72.27 M89.89 22.47 C90.52 35.09, 89.08 43.25, 89.89 72.27 M89.89 72.27 C90.58 86.7, 83.19 96.96, 67.42 94.75 M89.89 72.27 C94.49 85.78, 82.38 96.04, 67.42 94.75 M67.42 94.75 C55.27 91.62, 40.83 95.69, 22.47 94.75 M67.42 94.75 C57.95 94.05, 46.58 95.64, 22.47 94.75 M22.47 94.75 C7.08 93.04, -1.7 88.44, 0 72.27 M22.47 94.75 C7.39 95.18, -0.69 90.89, 0 72.27 M0 72.27 C2.17 59.52, 1.17 48.74, 0 22.47 M0 72.27 C-0.31 63.41, -1.34 48.93, 0 22.47 M0 22.47 C-2.92 6.1, 6.24 1.31, 22.47 0 M0 22.47 C2.73 5.68, 7.06 -1.16, 22.47 0" stroke="#1e1e1e" stroke-width="4" fill="none"></path></g><g stroke-linecap="round" transform="translate(512.5756975490224 218.62188928008254) rotate(0 44.94337665867715 47.37268512685114)"><path d="M22.47 0 C36.21 1.67, 46.01 3.72, 67.42 0 M22.47 0 C36.19 2.5, 47.7 -1.32, 67.42 0 M67.42 0 C80.24 -2.45, 89.46 6.1, 89.89 22.47 M67.42 0 C81.18 -1.86, 92.8 6.66, 89.89 22.47 M89.89 22.47 C90.9 44.37, 91 60.38, 89.89 72.27 M89.89 22.47 C88.39 41.24, 89.85 62.93, 89.89 72.27 M89.89 72.27 C91.9 91.06, 84.11 91.04, 67.42 94.75 M89.89 72.27 C88.52 87.81, 80.6 95.49, 67.42 94.75 M67.42 94.75 C56.84 93.62, 43.56 96.24, 22.47 94.75 M67.42 94.75 C54.54 94.29, 39.63 94.98, 22.47 94.75 M22.47 94.75 C9.34 93.25, 0.18 87.18, 0 72.27 M22.47 94.75 C8.28 99.14, -1.8 86.07, 0 72.27 M0 72.27 C-3.06 55.01, -2.5 46.85, 0 22.47 M0 72.27 C-1.37 62.4, -1.86 50.89, 0 22.47 M0 22.47 C1.6 5.38, 7.55 -2.17, 22.47 0 M0 22.47 C-0.43 4.85, 3.65 1.6, 22.47 0" stroke="#1e1e1e" stroke-width="4" fill="none"></path></g><g stroke-linecap="round" transform="translate(610.9652042669857 219.83655509831442) rotate(0 44.94337665867715 47.37268512685114)"><path d="M22.47 0 C30.03 3.02, 44.78 -0.6, 67.42 0 M22.47 0 C32.87 -2.72, 43.19 -2.12, 67.42 0 M67.42 0 C81.97 -1.39, 88.83 5.87, 89.89 22.47 M67.42 0 C85.31 -0.83, 93.43 6.14, 89.89 22.47 M89.89 22.47 C91.62 35.12, 94.03 45.82, 89.89 72.27 M89.89 22.47 C89.56 37.07, 90.3 51.44, 89.89 72.27 M89.89 72.27 C91.6 83.55, 81.21 95.23, 67.42 94.75 M89.89 72.27 C88.09 88, 80.12 90.24, 67.42 94.75 M67.42 94.75 C50.73 95.53, 36.8 94.31, 22.47 94.75 M67.42 94.75 C57.21 95.92, 49.23 94.15, 22.47 94.75 M22.47 94.75 C7.67 94.67, 0.69 91.08, 0 72.27 M22.47 94.75 C5.69 93.57, -1.26 83.85, 0 72.27 M0 72.27 C-2.29 63.57, -2.25 54.96, 0 22.47 M0 72.27 C-0.73 58.15, 1.04 41.88, 0 22.47 M0 22.47 C0.06 5.32, 7.12 -2.3, 22.47 0 M0 22.47 C-3.84 9.09, 2.98 -0.49, 22.47 0" stroke="#1e1e1e" stroke-width="4" fill="none"></path></g><g stroke-linecap="round" transform="translate(511.0573884519413 416.159848454874) rotate(0 44.943376658677266 47.37268512685114)"><path d="M22.47 0 C33.79 2.11, 55.76 -2.1, 67.42 0 M22.47 0 C34.52 -0.65, 46.4 -0.78, 67.42 0 M67.42 0 C84.75 1.25, 89.34 10.82, 89.89 22.47 M67.42 0 C78.68 -4.01, 86.25 8.68, 89.89 22.47 M89.89 22.47 C92.67 32.79, 92.46 47.78, 89.89 72.27 M89.89 22.47 C88.28 35.66, 87.97 47.13, 89.89 72.27 M89.89 72.27 C93.63 86.93, 82.01 93.2, 67.42 94.75 M89.89 72.27 C88.29 87.37, 78.88 91.99, 67.42 94.75 M67.42 94.75 C59.9 91.96, 51.96 94.83, 22.47 94.75 M67.42 94.75 C51.42 96.17, 35.71 95.61, 22.47 94.75 M22.47 94.75 C10.09 94.76, 0.46 85.01, 0 72.27 M22.47 94.75 C7.19 98.82, 1.98 89.27, 0 72.27 M0 72.27 C3.09 52.77, 2.11 30.56, 0 22.47 M0 72.27 C-0.25 60.7, 1.13 46.65, 0 22.47 M0 22.47 C1.86 9.75, 7.37 -2.81, 22.47 0 M0 22.47 C2.47 7.08, 5.61 0, 22.47 0" stroke="#1e1e1e" stroke-width="4" fill="none"></path></g><g stroke-linecap="round" transform="translate(609.4468951699052 417.3745142730768) rotate(0 44.94337665867715 47.37268512685114)"><path d="M22.47 0 C34.63 -3.26, 40.17 2.28, 67.42 0 M22.47 0 C33.3 -0.57, 49.17 0.98, 67.42 0 M67.42 0 C81.85 3.33, 86.66 4.01, 89.89 22.47 M67.42 0 C78.76 1.19, 87.26 3.95, 89.89 22.47 M89.89 22.47 C94.11 37.79, 88.12 47.01, 89.89 72.27 M89.89 22.47 C88.62 39.87, 91.44 54.35, 89.89 72.27 M89.89 72.27 C89.5 85.71, 81.01 94.85, 67.42 94.75 M89.89 72.27 C86.37 84.5, 78.37 94.3, 67.42 94.75 M67.42 94.75 C58.48 94.43, 44 94.3, 22.47 94.75 M67.42 94.75 C53.36 96.32, 42.25 95.42, 22.47 94.75 M22.47 94.75 C7.95 92.5, -0.26 90.8, 0 72.27 M22.47 94.75 C9.47 96.76, 3.99 82.98, 0 72.27 M0 72.27 C0.65 58.85, -3.01 51.21, 0 22.47 M0 72.27 C1.18 58.69, 1.13 50.02, 0 22.47 M0 22.47 C-0.12 4.68, 9.64 -0.36, 22.47 0 M0 22.47 C-1.88 7.49, 7.68 0.04, 22.47 0" stroke="#1e1e1e" stroke-width="4" fill="none"></path></g><g stroke-linecap="round" transform="translate(208.29732165579708 626.1482469597613) rotate(0 44.94337665867715 47.37268512685114)"><path d="M22.47 0 C34.4 1.02, 42.28 2.85, 67.42 0 M22.47 0 C30.24 0.76, 43.26 2.24, 67.42 0 M67.42 0 C83.79 2.61, 89.63 8.04, 89.89 22.47 M67.42 0 C81.11 2.91, 93.78 5.28, 89.89 22.47 M89.89 22.47 C90.35 40.01, 91.63 61.44, 89.89 72.27 M89.89 22.47 C87.93 31.42, 87.48 45.28, 89.89 72.27 M89.89 72.27 C91.84 87.51, 84.4 95.63, 67.42 94.75 M89.89 72.27 C88.65 85.64, 83.68 98.77, 67.42 94.75 M67.42 94.75 C56.24 92.26, 35.75 95.96, 22.47 94.75 M67.42 94.75 C55.49 97.22, 38.29 96.22, 22.47 94.75 M22.47 94.75 C7.37 92.9, 2.72 89.92, 0 72.27 M22.47 94.75 C4.4 96.25, 3.69 86.65, 0 72.27 M0 72.27 C3.83 53.94, -1.58 34.23, 0 22.47 M0 72.27 C1.45 59.12, -1.1 48.78, 0 22.47 M0 22.47 C-3.45 4.26, 6.88 3.18, 22.47 0 M0 22.47 C0.85 9.45, 10.61 4.16, 22.47 0" stroke="#1e1e1e" stroke-width="4" fill="none"></path></g><g stroke-linecap="round" transform="translate(306.6868283737608 627.3629127779786) rotate(0 44.94337665867715 47.37268512685114)"><path d="M22.47 0 C32.96 2.62, 46 0.14, 67.42 0 M22.47 0 C33.57 1.48, 42.56 1.3, 67.42 0 M67.42 0 C82.14 0.55, 88.77 10.02, 89.89 22.47 M67.42 0 C86.29 -2.21, 94.2 7.58, 89.89 22.47 M89.89 22.47 C91.72 40.62, 86.72 57.45, 89.89 72.27 M89.89 22.47 C87.18 38.67, 90.12 52.82, 89.89 72.27 M89.89 72.27 C91.89 88.14, 81.32 93.34, 67.42 94.75 M89.89 72.27 C91.17 91.28, 83.55 91.32, 67.42 94.75 M67.42 94.75 C54.36 96.1, 46.5 95.23, 22.47 94.75 M67.42 94.75 C49.77 96.56, 35.05 94.69, 22.47 94.75 M22.47 94.75 C10.21 97.42, -2.69 88.57, 0 72.27 M22.47 94.75 C11.18 94.14, 2.48 84.6, 0 72.27 M0 72.27 C-2.97 58.97, -3.66 47.65, 0 22.47 M0 72.27 C-2.28 53.51, -2 34.55, 0 22.47 M0 22.47 C-0.61 10.68, 8.23 1.71, 22.47 0 M0 22.47 C3.12 11.65, 7.18 3.66, 22.47 0" stroke="#1e1e1e" stroke-width="4" fill="none"></path></g><g stroke-linecap="round" transform="translate(408.1129533007472 628.8812682190255) rotate(0 44.94337665867715 47.37268512685114)"><path d="M22.47 0 C33.71 -0.27, 48.34 -4.49, 67.42 0 M22.47 0 C36.66 0.64, 49.32 -0.39, 67.42 0 M67.42 0 C81.28 2.53, 93.27 5.57, 89.89 22.47 M67.42 0 C86.71 0.09, 93.08 8, 89.89 22.47 M89.89 22.47 C87.04 33.04, 90.45 44.21, 89.89 72.27 M89.89 22.47 C89.89 32.78, 89.91 43.27, 89.89 72.27 M89.89 72.27 C88.81 85.85, 83.51 98.25, 67.42 94.75 M89.89 72.27 C91.04 83.83, 79.45 98.7, 67.42 94.75 M67.42 94.75 C56.37 96.06, 47.12 98.93, 22.47 94.75 M67.42 94.75 C49.52 94.25, 33.1 96.51, 22.47 94.75 M22.47 94.75 C4.8 96.06, 3.21 86.73, 0 72.27 M22.47 94.75 C9.97 92.09, -4.09 91, 0 72.27 M0 72.27 C-2.31 54.62, 3.04 45.26, 0 22.47 M0 72.27 C-0.73 60.09, 0.69 52.74, 0 22.47 M0 22.47 C0.74 9.2, 10.2 3.61, 22.47 0 M0 22.47 C-0.31 11.15, 8.52 1.55, 22.47 0" stroke="#1e1e1e" stroke-width="4" fill="none"></path></g><g stroke-linecap="round" transform="translate(11.518309097080419 217.10353375365958) rotate(0 44.94337665867715 47.37268512685114)"><path d="M22.47 0 C33.95 -1.4, 50.5 0.07, 67.42 0 M22.47 0 C40.24 -0.56, 57.14 -0.49, 67.42 0 M67.42 0 C85.91 1.89, 87.28 7.29, 89.89 22.47 M67.42 0 C83.66 -3.98, 87.89 7.72, 89.89 22.47 M89.89 22.47 C89.25 32.8, 86.75 44.41, 89.89 72.27 M89.89 22.47 C88.15 36.91, 88.37 54.92, 89.89 72.27 M89.89 72.27 C87.2 86.49, 79.68 93.63, 67.42 94.75 M89.89 72.27 C89.73 91.36, 85.52 99.09, 67.42 94.75 M67.42 94.75 C54.15 92.74, 38.91 97.05, 22.47 94.75 M67.42 94.75 C56.38 96.8, 40.69 93.75, 22.47 94.75 M22.47 94.75 C9 95.52, -0.09 83.99, 0 72.27 M22.47 94.75 C8.88 98.48, 0.59 87.02, 0 72.27 M0 72.27 C-1.12 56.64, 4.37 35.9, 0 22.47 M0 72.27 C-0.33 54.46, 0.29 38.37, 0 22.47 M0 22.47 C2.24 8.59, 11.24 -3.45, 22.47 0 M0 22.47 C-3.35 3.15, 9.98 3.72, 22.47 0" stroke="#1e1e1e" stroke-width="4" fill="none"></path></g><g stroke-linecap="round" transform="translate(112.94443402406614 218.62188919470645) rotate(0 44.94337665867715 47.37268512685114)"><path d="M22.47 0 C42.69 0.94, 60.5 -2.8, 67.42 0 M22.47 0 C36.79 -0.05, 54.7 1.04, 67.42 0 M67.42 0 C79.79 -0.2, 90.99 4.03, 89.89 22.47 M67.42 0 C80.4 0.23, 86.62 6.93, 89.89 22.47 M89.89 22.47 C86.75 37.95, 90.18 51.64, 89.89 72.27 M89.89 22.47 C88.81 35.58, 88.12 45.28, 89.89 72.27 M89.89 72.27 C87.17 86.14, 82.26 98.32, 67.42 94.75 M89.89 72.27 C93.01 91.6, 85.07 93.01, 67.42 94.75 M67.42 94.75 C57.25 96.51, 39.05 90.96, 22.47 94.75 M67.42 94.75 C49.25 93.68, 34.37 95.75, 22.47 94.75 M22.47 94.75 C7.4 91.48, 1.21 90.51, 0 72.27 M22.47 94.75 C8.08 94.51, 2.12 85.22, 0 72.27 M0 72.27 C4.32 59.74, 1.88 52.5, 0 22.47 M0 72.27 C0.64 56.05, 1.1 40.98, 0 22.47 M0 22.47 C3.74 4.04, 4.57 -3.77, 22.47 0 M0 22.47 C2.49 11.22, 5.15 1.09, 22.47 0" stroke="#1e1e1e" stroke-width="4" fill="none"></path></g><g stroke-linecap="round" transform="translate(10 414.64149292842194) rotate(0 44.94337665867715 47.37268512685114)"><path d="M22.47 0 C38.41 0.62, 50.81 -1.17, 67.42 0 M22.47 0 C34.33 -0.52, 49.36 -2.15, 67.42 0 M67.42 0 C80.66 0.2, 87.04 7.01, 89.89 22.47 M67.42 0 C83.69 -0.59, 88.66 4.03, 89.89 22.47 M89.89 22.47 C87.3 34.61, 87.95 48.92, 89.89 72.27 M89.89 22.47 C87.86 40.63, 89.15 61.69, 89.89 72.27 M89.89 72.27 C92.61 91.03, 84.72 93.24, 67.42 94.75 M89.89 72.27 C90.26 90.51, 80 98.98, 67.42 94.75 M67.42 94.75 C54.47 97.37, 38.19 91.46, 22.47 94.75 M67.42 94.75 C57.66 93.29, 48.61 96.55, 22.47 94.75 M22.47 94.75 C8 94.54, 1.84 85.48, 0 72.27 M22.47 94.75 C3.51 92.95, 1.85 91.78, 0 72.27 M0 72.27 C0.41 59.79, -2.39 48.46, 0 22.47 M0 72.27 C1.31 56.36, -2.02 42.02, 0 22.47 M0 22.47 C2.17 10.73, 5.46 0.95, 22.47 0 M0 22.47 C0.99 8.21, 10.99 -3.42, 22.47 0" stroke="#1e1e1e" stroke-width="4" fill="none"></path></g><g stroke-linecap="round" transform="translate(111.42612492698572 416.1598483694688) rotate(0 44.94337665867715 47.37268512685114)"><path d="M22.47 0 C32.23 -1.83, 42.53 3.53, 67.42 0 M22.47 0 C38.63 -1.69, 52.82 0.14, 67.42 0 M67.42 0 C79.55 -0.48, 91.01 6.98, 89.89 22.47 M67.42 0 C81.16 -3.46, 88.89 7.97, 89.89 22.47 M89.89 22.47 C87.18 31.75, 92.25 40.93, 89.89 72.27 M89.89 22.47 C89.14 38.24, 90.57 52.33, 89.89 72.27 M89.89 72.27 C92.21 85.74, 82.72 97.57, 67.42 94.75 M89.89 72.27 C87.49 91.49, 84.96 93.97, 67.42 94.75 M67.42 94.75 C60.41 92.96, 44.55 97.02, 22.47 94.75 M67.42 94.75 C53.67 95.64, 38.96 93.91, 22.47 94.75 M22.47 94.75 C9.34 92.97, -3.46 85.69, 0 72.27 M22.47 94.75 C9.34 99.27, -2.19 88.97, 0 72.27 M0 72.27 C-2.21 56.8, -0.8 40.9, 0 22.47 M0 72.27 C-2.39 54.08, 0.15 41.28, 0 22.47 M0 22.47 C-2.04 8.44, 8.35 0.63, 22.47 0 M0 22.47 C3.5 4.07, 10.81 0.08, 22.47 0" stroke="#1e1e1e" stroke-width="4" fill="none"></path></g><g stroke-linecap="round" transform="translate(11.51830951698912 311.84890369611094) rotate(0 44.94337665867715 47.37268512685114)"><path d="M22.47 0 C37.86 -0.36, 50.19 -0.26, 67.42 0 M22.47 0 C32.33 0.59, 41.8 0.47, 67.42 0 M67.42 0 C80.14 2.53, 91.71 7.67, 89.89 22.47 M67.42 0 C83.29 4.36, 86.33 9.57, 89.89 22.47 M89.89 22.47 C91.28 36.88, 89.12 45.85, 89.89 72.27 M89.89 22.47 C90.66 37.3, 90.77 51.16, 89.89 72.27 M89.89 72.27 C88.41 89.67, 83.04 98.07, 67.42 94.75 M89.89 72.27 C90.94 85.04, 79.84 96.53, 67.42 94.75 M67.42 94.75 C54.82 91.04, 40.1 96.23, 22.47 94.75 M67.42 94.75 C50.98 95.03, 32.28 94.22, 22.47 94.75 M22.47 94.75 C5.86 97.32, -2.87 85.19, 0 72.27 M22.47 94.75 C11.93 97.83, 4.32 84.37, 0 72.27 M0 72.27 C-3.57 58.45, -2.02 43.54, 0 22.47 M0 72.27 C-0.32 57.31, 1.52 41.35, 0 22.47 M0 22.47 C2.87 7.08, 4.69 2.34, 22.47 0 M0 22.47 C-3.73 10.66, 7.62 3.14, 22.47 0" stroke="#1e1e1e" stroke-width="4" fill="none"></path></g><g stroke-linecap="round" transform="translate(609.4468948375222 314.58192472525843) rotate(0 44.94337665867715 47.37268512685114)"><path d="M22.47 0 C28.84 0.47, 37.57 0.71, 67.42 0 M22.47 0 C39.9 1.14, 56.38 0.4, 67.42 0 M67.42 0 C80.21 2.64, 88.12 9.49, 89.89 22.47 M67.42 0 C86.8 -2.14, 91.94 5.64, 89.89 22.47 M89.89 22.47 C88.23 37.43, 89.77 46.56, 89.89 72.27 M89.89 22.47 C91.17 41.26, 88.33 61.29, 89.89 72.27 M89.89 72.27 C90.35 83.44, 80.57 97.01, 67.42 94.75 M89.89 72.27 C86.77 88.75, 80.82 96.54, 67.42 94.75 M67.42 94.75 C54.93 94.81, 39.79 96.59, 22.47 94.75 M67.42 94.75 C51.2 95.29, 34.15 97.1, 22.47 94.75 M22.47 94.75 C5.36 91.63, -3.56 88.9, 0 72.27 M22.47 94.75 C7.16 93.24, -3.76 87.95, 0 72.27 M0 72.27 C4.12 57.58, 3.52 43.91, 0 22.47 M0 72.27 C-0.13 62.19, 1.34 52.2, 0 22.47 M0 22.47 C-2.07 5.73, 6.29 1.88, 22.47 0 M0 22.47 C4.11 9.1, 7.69 -3.38, 22.47 0" stroke="#1e1e1e" stroke-width="4" fill="none"></path></g><g stroke-linecap="round"><g transform="translate(727.0797248651413 370.6570080638994) rotate(0 143.88435745181823 1.4591957717639161)"><path d="M0.52 -2.05 C48.82 -0.9, 242.51 4.27, 290.42 4.97 M-2.65 3.01 C45.31 3.51, 240.65 0.51, 288.64 0.76" stroke="#1e1e1e" stroke-width="4" fill="none"></path></g><g transform="translate(727.0797248651413 370.6570080638994) rotate(0 143.88435745181823 1.4591957717639161)"><path d="M263.73 10.06 C273.82 5.48, 279.31 4.71, 288.8 0.98 M265.79 9.88 C272.07 6.45, 280.38 3.11, 288.47 1.02" stroke="#1e1e1e" stroke-width="4" fill="none"></path></g><g transform="translate(727.0797248651413 370.6570080638994) rotate(0 143.88435745181823 1.4591957717639161)"><path d="M263.63 -7.04 C273.63 -6.14, 279.15 -1.44, 288.8 0.98 M265.68 -7.23 C272.01 -5.4, 280.35 -3.48, 288.47 1.02" stroke="#1e1e1e" stroke-width="4" fill="none"></path></g></g><mask></mask><g transform="translate(360.7532521660264 46.19641130456148) rotate(0 -0.8721925785731628 14.8274901038385)" stroke="none"><path fill="#1e1e1e" d="M 0.86,1.72 Q 0.86,1.72 -1.18,2.65 -3.22,3.57 -4.44,4.47 -5.66,5.36 -7.11,7.05 -8.56,8.74 -10.76,11.50 -12.96,14.25 -14.34,16.82 -15.73,19.38 -16.29,21.84 -16.86,24.31 -17.04,25.90 -17.21,27.49 -17.22,28.62 -17.22,29.75 -16.89,30.76 -16.56,31.77 -14.00,32.19 -11.44,32.61 -9.16,32.79 -6.89,32.98 -4.41,33.09 -1.94,33.19 -0.08,32.78 1.77,32.38 4.41,30.32 7.04,28.26 9.19,25.92 11.34,23.58 12.74,21.63 14.14,19.68 14.67,17.52 15.20,15.37 15.35,13.90 15.50,12.43 15.64,10.37 15.78,8.32 15.73,6.93 15.68,5.55 15.19,4.21 14.70,2.87 14.47,1.12 14.23,-0.62 13.37,-1.84 12.52,-3.05 11.41,-2.85 10.31,-2.65 8.43,-2.64 6.55,-2.63 5.20,-1.98 3.85,-1.33 2.91,0.03 1.97,1.41 1.69,1.69 1.41,1.97 1.06,2.14 0.71,2.32 0.32,2.37 -0.06,2.42 -0.45,2.35 -0.83,2.28 -1.17,2.08 -1.52,1.89 -1.78,1.60 -2.04,1.30 -2.20,0.94 -2.35,0.58 -2.38,0.19 -2.42,-0.19 -2.32,-0.57 -2.23,-0.95 -2.01,-1.28 -1.80,-1.62 -1.50,-1.86 -1.19,-2.11 -0.82,-2.24 -0.45,-2.38 -0.06,-2.39 0.32,-2.40 0.70,-2.29 1.07,-2.17 1.39,-1.94 1.71,-1.71 1.94,-1.39 2.17,-1.08 2.29,-0.70 2.40,-0.32 2.39,0.06 2.38,0.45 2.24,0.82 2.11,1.19 1.86,1.50 1.62,1.80 1.29,2.01 0.96,2.23 0.57,2.32 0.19,2.42 -0.19,2.38 -0.58,2.35 -0.94,2.20 -1.30,2.04 -1.59,1.78 -1.89,1.52 -2.08,1.18 -2.27,0.83 -2.35,0.45 -2.42,0.06 -2.37,-0.32 -2.32,-0.71 -2.14,-1.06 -1.97,-1.41 -1.97,-1.41 -1.97,-1.41 0.07,-3.73 2.13,-6.05 3.06,-6.75 4.00,-7.45 6.33,-7.53 8.65,-7.61 9.75,-7.49 10.85,-7.38 12.51,-7.07 14.17,-6.76 15.29,-5.21 16.41,-3.66 17.09,-2.51 17.76,-1.36 17.94,0.24 18.11,1.86 18.59,3.73 19.06,5.60 18.92,7.04 18.77,8.48 18.69,10.72 18.60,12.96 18.23,14.51 17.86,16.06 17.16,18.65 16.45,21.24 14.95,23.37 13.46,25.50 11.15,28.05 8.84,30.60 5.71,32.96 2.57,35.32 0.29,35.88 -1.98,36.43 -4.52,36.44 -7.06,36.44 -9.50,36.40 -11.95,36.35 -14.29,36.04 -16.63,35.74 -18.15,34.63 -19.66,33.53 -20.24,31.52 -20.82,29.51 -20.61,28.25 -20.39,26.99 -20.05,25.33 -19.71,23.66 -19.07,20.82 -18.42,17.98 -16.96,15.15 -15.49,12.31 -13.33,9.44 -11.18,6.57 -9.48,4.46 -7.77,2.35 -6.28,1.39 -4.80,0.43 -2.83,-0.64 -0.86,-1.72 -0.64,-1.79 -0.42,-1.87 -0.19,-1.90 0.03,-1.92 0.26,-1.89 0.49,-1.85 0.71,-1.77 0.92,-1.68 1.11,-1.55 1.30,-1.41 1.45,-1.23 1.60,-1.06 1.70,-0.85 1.81,-0.64 1.86,-0.42 1.91,-0.19 1.91,0.03 1.90,0.26 1.84,0.49 1.78,0.71 1.67,0.92 1.56,1.12 1.40,1.29 1.24,1.46 1.05,1.59 0.86,1.72 0.86,1.72 L 0.86,1.72 Z"></path></g><g transform="translate(439.2517820301225 51.429633320032735) rotate(0 13.083088310682683 10.466477302947169)" stroke="none"><path fill="#1e1e1e" d="M 0.51,-2.05 Q 0.51,-2.05 2.49,-1.46 4.47,-0.87 6.19,-0.66 7.90,-0.44 9.39,-0.83 10.88,-1.21 12.50,-1.81 14.11,-2.42 15.06,-3.51 16.00,-4.60 16.93,-6.01 17.86,-7.41 18.17,-8.82 18.47,-10.23 18.58,-11.45 18.69,-12.68 18.78,-12.91 18.87,-13.14 19.02,-13.33 19.16,-13.53 19.34,-13.69 19.53,-13.85 19.75,-13.96 19.97,-14.07 20.20,-14.13 20.44,-14.18 20.69,-14.18 20.93,-14.17 21.17,-14.11 21.40,-14.05 21.62,-13.93 21.83,-13.81 22.01,-13.65 22.19,-13.48 22.33,-13.28 22.46,-13.08 22.54,-12.85 22.63,-12.62 22.65,-12.37 22.68,-12.13 22.64,-11.89 22.61,-11.65 21.99,-10.77 21.37,-9.89 20.83,-8.47 20.29,-7.04 19.97,-5.05 19.65,-3.06 19.47,-0.68 19.29,1.69 19.19,4.71 19.09,7.73 18.52,11.62 17.96,15.51 17.71,17.60 17.47,19.69 17.48,21.08 17.48,22.47 16.94,24.29 16.40,26.11 15.65,27.50 14.91,28.89 13.84,30.65 12.78,32.42 11.71,33.68 10.65,34.94 9.58,35.21 8.51,35.48 7.69,35.58 6.87,35.68 6.55,35.69 6.23,35.70 5.92,35.64 5.61,35.57 5.32,35.44 5.03,35.30 4.78,35.10 4.54,34.89 4.35,34.64 4.15,34.38 4.03,34.09 3.91,33.80 3.85,33.48 3.80,33.17 3.83,32.85 3.86,32.53 3.96,32.23 4.06,31.92 4.23,31.65 4.40,31.38 4.63,31.16 4.86,30.94 5.14,30.78 5.41,30.62 5.72,30.54 6.03,30.45 7.21,29.75 8.38,29.05 10.54,29.07 12.69,29.09 14.56,29.12 16.42,29.15 18.22,29.18 20.02,29.21 21.49,29.24 22.97,29.27 24.07,29.92 25.17,30.57 26.78,32.15 28.39,33.72 28.52,34.10 28.64,34.49 28.64,34.90 28.64,35.30 28.51,35.69 28.38,36.07 28.13,36.39 27.88,36.72 27.54,36.94 27.21,37.17 26.81,37.28 26.42,37.38 26.01,37.36 25.61,37.34 25.23,37.18 24.85,37.03 24.55,36.77 24.24,36.50 24.03,36.15 23.82,35.80 23.74,35.40 23.65,35.01 23.70,34.60 23.74,34.20 23.92,33.83 24.09,33.46 24.37,33.17 24.65,32.87 25.01,32.69 25.37,32.50 25.77,32.43 26.17,32.37 26.58,32.44 26.98,32.51 27.33,32.70 27.69,32.89 27.97,33.19 28.25,33.48 28.42,33.85 28.59,34.22 28.63,34.63 28.67,35.03 28.58,35.43 28.49,35.83 28.28,36.17 28.07,36.52 27.76,36.78 27.45,37.04 27.07,37.19 26.69,37.34 26.28,37.36 25.88,37.38 25.48,37.27 25.09,37.16 24.76,36.93 24.42,36.70 24.18,36.37 23.93,36.05 23.93,36.05 23.93,36.05 22.00,34.84 20.06,33.63 18.29,33.68 16.52,33.74 14.71,33.85 12.91,33.96 10.56,33.90 8.21,33.85 7.54,34.76 6.87,35.68 6.55,35.69 6.23,35.70 5.92,35.64 5.61,35.57 5.32,35.44 5.03,35.30 4.78,35.10 4.54,34.89 4.35,34.64 4.15,34.38 4.03,34.09 3.91,33.80 3.85,33.48 3.80,33.17 3.83,32.85 3.86,32.53 3.96,32.23 4.06,31.92 4.23,31.65 4.40,31.38 4.63,31.16 4.86,30.94 5.14,30.78 5.41,30.62 5.72,30.54 6.03,30.45 7.51,30.69 9.00,30.93 9.94,29.99 10.87,29.06 11.27,27.99 11.67,26.92 12.38,25.95 13.10,24.97 13.64,23.60 14.19,22.22 14.38,20.80 14.58,19.39 14.78,17.25 14.98,15.10 15.46,11.39 15.94,7.67 15.95,4.59 15.95,1.52 16.02,-1.00 16.08,-3.53 16.34,-6.00 16.60,-8.48 17.65,-10.58 18.69,-12.68 18.78,-12.91 18.87,-13.14 19.02,-13.33 19.16,-13.53 19.34,-13.69 19.53,-13.85 19.75,-13.96 19.97,-14.07 20.20,-14.13 20.44,-14.18 20.69,-14.18 20.93,-14.17 21.17,-14.11 21.40,-14.05 21.62,-13.93 21.83,-13.81 22.01,-13.65 22.19,-13.48 22.33,-13.28 22.46,-13.08 22.54,-12.85 22.63,-12.62 22.65,-12.37 22.68,-12.13 22.64,-11.89 22.61,-11.65 22.35,-10.46 22.09,-9.27 21.51,-7.35 20.94,-5.44 19.80,-3.74 18.66,-2.04 17.11,-0.55 15.55,0.93 13.64,1.68 11.72,2.43 9.63,2.87 7.54,3.30 5.54,3.09 3.54,2.87 1.51,2.46 -0.51,2.05 -0.75,1.95 -0.98,1.86 -1.19,1.72 -1.40,1.57 -1.57,1.38 -1.74,1.19 -1.86,0.96 -1.97,0.74 -2.03,0.49 -2.09,0.24 -2.09,-0.00 -2.09,-0.26 -2.03,-0.50 -1.97,-0.75 -1.85,-0.98 -1.73,-1.20 -1.56,-1.39 -1.39,-1.58 -1.18,-1.73 -0.97,-1.87 -0.73,-1.96 -0.49,-2.05 -0.24,-2.08 0.00,-2.11 0.26,-2.08 0.51,-2.05 0.51,-2.05 L 0.51,-2.05 Z"></path></g><g transform="translate(453.20712946340655 152.60550294716813) rotate(0 11.338636609508058 12.210895732110657)" stroke="none"><path fill="#1e1e1e" d="M -1.82,-1.82 Q -1.82,-1.82 -0.79,-2.84 0.23,-3.85 1.50,-4.55 2.77,-5.26 3.94,-5.56 5.11,-5.87 6.27,-5.98 7.42,-6.08 9.06,-5.40 10.69,-4.72 11.57,-3.55 12.44,-2.39 13.51,0.13 14.57,2.66 14.72,3.87 14.87,5.07 14.88,6.70 14.89,8.32 14.31,9.99 13.72,11.66 12.87,12.90 12.02,14.13 11.21,15.43 10.40,16.73 9.28,17.68 8.16,18.62 7.10,19.78 6.03,20.93 5.15,21.87 4.26,22.82 3.80,23.67 3.34,24.52 2.99,24.63 2.64,24.73 2.28,24.75 1.92,24.77 1.56,24.70 1.20,24.63 0.87,24.48 0.54,24.32 0.26,24.10 -0.01,23.87 -0.23,23.58 -0.46,23.29 -0.60,22.96 -0.75,22.63 -0.81,22.27 -0.87,21.91 -0.84,21.55 -0.82,21.19 -0.71,20.84 -0.60,20.50 -0.41,20.19 -0.21,19.88 0.04,19.62 0.29,19.37 0.61,19.19 0.92,19.00 2.83,19.21 4.74,19.41 5.83,19.51 6.91,19.60 8.42,19.71 9.94,19.82 11.60,19.92 13.27,20.01 15.31,20.65 17.35,21.29 18.61,21.54 19.86,21.79 20.99,22.67 22.12,23.56 23.37,24.80 24.62,26.04 24.87,26.40 25.11,26.76 25.23,27.18 25.35,27.60 25.33,28.03 25.31,28.47 25.15,28.87 24.99,29.28 24.71,29.62 24.43,29.95 24.06,30.18 23.69,30.40 23.26,30.50 22.84,30.60 22.40,30.55 21.97,30.51 21.57,30.33 21.17,30.15 20.85,29.85 20.54,29.55 20.33,29.17 20.12,28.78 20.05,28.35 19.97,27.92 20.04,27.49 20.11,27.06 20.31,26.67 20.51,26.29 20.83,25.99 21.14,25.68 21.54,25.50 21.93,25.31 22.37,25.26 22.80,25.21 23.23,25.30 23.65,25.39 24.03,25.62 24.40,25.84 24.69,26.17 24.97,26.50 25.14,26.90 25.30,27.31 25.33,27.74 25.36,28.18 25.24,28.60 25.13,29.02 24.89,29.38 24.64,29.75 24.30,30.01 23.95,30.28 23.54,30.42 23.13,30.56 22.69,30.57 22.25,30.57 21.84,30.43 21.42,30.30 21.08,30.04 20.73,29.77 20.73,29.77 20.73,29.77 19.54,28.09 18.35,26.40 17.15,26.22 15.94,26.04 14.55,25.66 13.15,25.28 11.46,25.33 9.77,25.38 8.11,25.40 6.44,25.41 4.89,24.97 3.34,24.52 2.99,24.62 2.64,24.73 2.28,24.75 1.92,24.77 1.56,24.70 1.20,24.63 0.87,24.48 0.54,24.32 0.26,24.10 -0.01,23.87 -0.23,23.58 -0.46,23.29 -0.60,22.96 -0.75,22.63 -0.81,22.27 -0.87,21.91 -0.84,21.55 -0.82,21.19 -0.71,20.84 -0.60,20.50 -0.41,20.19 -0.21,19.88 0.04,19.62 0.29,19.37 0.61,19.19 0.92,19.00 1.27,18.71 1.63,18.42 2.57,17.51 3.52,16.59 4.71,15.27 5.91,13.95 6.70,12.41 7.50,10.88 8.43,9.58 9.37,8.29 9.28,7.00 9.19,5.70 9.06,3.98 8.93,2.26 7.56,0.84 6.18,-0.56 4.98,-0.36 3.77,-0.15 2.80,0.83 1.82,1.82 1.58,2.02 1.33,2.21 1.05,2.34 0.76,2.46 0.46,2.52 0.15,2.58 -0.15,2.56 -0.46,2.54 -0.76,2.45 -1.06,2.35 -1.32,2.19 -1.59,2.03 -1.81,1.81 -2.03,1.59 -2.19,1.32 -2.35,1.06 -2.45,0.76 -2.54,0.46 -2.56,0.15 -2.58,-0.15 -2.52,-0.46 -2.46,-0.76 -2.34,-1.05 -2.21,-1.33 -2.02,-1.58 -1.82,-1.82 -1.82,-1.82 L -1.82,-1.82 Z"></path></g><g transform="translate(451.4627443062602 245.05934697253542) rotate(0 13.083088310682683 20.060728755310265)" stroke="none"><path fill="#1e1e1e" d="M -0.68,-2.06 Q -0.68,-2.06 0.81,-2.56 2.31,-3.07 3.88,-3.72 5.46,-4.38 7.41,-4.74 9.36,-5.10 11.98,-4.59 14.59,-4.09 16.88,-2.18 19.18,-0.27 20.22,1.06 21.25,2.40 21.79,3.59 22.32,4.78 23.36,7.42 24.40,10.06 23.38,12.22 22.37,14.37 21.43,16.03 20.50,17.69 22.02,19.44 23.54,21.20 24.47,22.28 25.40,23.37 26.74,24.58 28.07,25.79 28.36,26.91 28.65,28.02 28.75,30.48 28.86,32.94 28.26,34.56 27.67,36.18 26.89,37.65 26.11,39.12 25.04,40.87 23.97,42.63 21.59,43.67 19.21,44.70 17.79,45.07 16.37,45.44 15.20,45.64 14.04,45.83 11.41,46.03 8.78,46.23 8.36,46.17 7.94,46.11 7.56,45.92 7.18,45.73 6.88,45.43 6.59,45.13 6.40,44.75 6.21,44.37 6.15,43.95 6.10,43.53 6.18,43.11 6.26,42.70 6.47,42.33 6.68,41.96 6.99,41.68 7.31,41.39 7.70,41.23 8.09,41.06 8.51,41.03 8.94,40.99 9.35,41.10 9.76,41.20 10.11,41.43 10.47,41.66 10.74,41.99 11.00,42.32 11.15,42.72 11.29,43.12 11.30,43.54 11.31,43.97 11.19,44.37 11.06,44.78 10.81,45.12 10.57,45.46 10.22,45.71 9.88,45.96 9.47,46.08 9.06,46.20 8.64,46.19 8.22,46.18 7.82,46.03 7.42,45.88 7.09,45.62 6.76,45.35 6.53,44.99 6.31,44.64 6.21,44.22 6.10,43.81 6.14,43.39 6.18,42.97 6.34,42.58 6.51,42.19 6.80,41.87 7.08,41.56 7.45,41.35 7.82,41.14 8.24,41.06 8.65,40.99 8.65,40.99 8.65,40.99 10.19,41.00 11.72,41.01 13.53,40.95 15.33,40.90 16.48,40.68 17.63,40.47 18.95,40.12 20.26,39.78 20.80,38.29 21.34,36.80 22.36,34.80 23.39,32.81 23.34,31.58 23.28,30.36 23.48,29.02 23.68,27.69 22.36,26.44 21.04,25.19 19.49,24.34 17.95,23.49 16.62,22.13 15.30,20.77 15.23,19.52 15.16,18.28 16.07,16.99 16.97,15.70 17.79,14.00 18.62,12.29 19.26,10.40 19.90,8.51 19.02,6.50 18.15,4.48 17.53,3.41 16.91,2.33 15.31,0.92 13.71,-0.49 11.86,-0.73 10.02,-0.97 8.57,-0.73 7.12,-0.48 5.41,0.29 3.70,1.07 2.19,1.56 0.68,2.06 0.43,2.11 0.17,2.16 -0.08,2.15 -0.34,2.14 -0.60,2.07 -0.85,1.99 -1.08,1.86 -1.30,1.73 -1.49,1.55 -1.68,1.37 -1.82,1.15 -1.96,0.93 -2.04,0.68 -2.13,0.43 -2.15,0.17 -2.17,-0.08 -2.13,-0.34 -2.08,-0.60 -1.98,-0.84 -1.88,-1.08 -1.72,-1.29 -1.56,-1.50 -1.36,-1.67 -1.16,-1.83 -0.92,-1.95 -0.68,-2.06 -0.68,-2.06 L -0.68,-2.06 Z"></path></g><g transform="translate(547.405391917933 238.0817065279116) rotate(0 6.105348050012481 26.166159985357808)" stroke="none"><path fill="#1e1e1e" d="M 2.14,0.42 Q 2.14,0.42 1.53,2.91 0.91,5.39 0.63,7.85 0.34,10.30 0.19,12.85 0.04,15.40 -0.03,17.48 -0.11,19.55 0.40,20.67 0.92,21.78 1.17,22.84 1.41,23.90 2.53,23.01 3.65,22.13 4.62,20.84 5.59,19.55 6.49,18.49 7.39,17.44 8.18,15.40 8.98,13.36 9.94,10.87 10.90,8.38 11.24,6.79 11.58,5.19 11.69,4.99 11.79,4.78 11.94,4.60 12.08,4.42 12.27,4.28 12.46,4.15 12.67,4.06 12.88,3.97 13.11,3.93 13.34,3.90 13.57,3.92 13.80,3.94 14.02,4.02 14.24,4.09 14.44,4.22 14.63,4.34 14.79,4.51 14.95,4.68 15.06,4.88 15.17,5.08 15.24,5.31 15.30,5.53 15.31,5.76 15.31,5.99 15.26,6.22 15.22,6.45 14.08,7.14 12.94,7.83 12.35,10.55 11.76,13.27 10.84,17.06 9.91,20.85 8.46,24.58 7.00,28.32 5.90,31.81 4.79,35.31 3.80,38.32 2.81,41.34 2.39,43.55 1.98,45.76 1.30,47.05 0.62,48.33 0.50,49.98 0.38,51.62 0.28,51.85 0.18,52.07 0.02,52.27 -0.12,52.46 -0.31,52.61 -0.51,52.76 -0.73,52.86 -0.96,52.96 -1.20,53.01 -1.44,53.05 -1.69,53.03 -1.93,53.02 -2.17,52.95 -2.40,52.87 -2.61,52.74 -2.82,52.62 -3.00,52.44 -3.17,52.27 -3.30,52.06 -3.42,51.85 -3.50,51.61 -3.57,51.38 -3.58,51.13 -3.60,50.88 -3.55,50.64 -3.51,50.40 -0.41,48.69 2.68,46.98 3.00,46.90 3.32,46.82 3.65,46.84 3.97,46.87 4.27,47.00 4.58,47.13 4.82,47.35 5.06,47.57 5.23,47.85 5.39,48.14 5.45,48.46 5.51,48.78 5.47,49.11 5.42,49.43 5.28,49.73 5.13,50.02 4.90,50.25 4.67,50.49 4.37,50.63 4.08,50.78 3.75,50.82 3.43,50.86 3.11,50.80 2.78,50.74 2.50,50.58 2.21,50.42 1.99,50.17 1.78,49.93 1.65,49.63 1.52,49.33 1.49,49.00 1.46,48.67 1.54,48.36 1.62,48.04 1.80,47.76 1.98,47.48 2.23,47.28 2.49,47.07 2.79,46.96 3.10,46.85 3.43,46.84 3.76,46.83 4.07,46.93 4.38,47.02 4.65,47.21 4.92,47.41 5.11,47.67 5.30,47.94 5.40,48.25 5.49,48.57 5.48,48.89 5.47,49.22 5.36,49.53 5.25,49.84 5.04,50.09 4.84,50.35 4.56,50.52 4.28,50.70 4.28,50.70 4.28,50.70 2.33,51.16 0.38,51.62 0.28,51.85 0.18,52.07 0.02,52.27 -0.12,52.46 -0.31,52.61 -0.51,52.76 -0.73,52.86 -0.96,52.96 -1.20,53.01 -1.44,53.05 -1.69,53.03 -1.93,53.02 -2.17,52.95 -2.40,52.87 -2.61,52.74 -2.82,52.62 -3.00,52.44 -3.17,52.27 -3.30,52.06 -3.42,51.85 -3.50,51.61 -3.57,51.38 -3.58,51.13 -3.60,50.88 -3.55,50.64 -3.51,50.40 -3.30,49.54 -3.10,48.68 -1.93,46.92 -0.77,45.16 -0.37,42.81 0.03,40.45 0.96,37.44 1.89,34.42 2.96,30.81 4.02,27.20 5.31,23.65 6.60,20.10 7.41,16.20 8.21,12.30 9.90,8.75 11.58,5.19 11.69,4.99 11.79,4.78 11.94,4.60 12.08,4.42 12.27,4.28 12.46,4.15 12.67,4.06 12.88,3.97 13.11,3.93 13.34,3.90 13.57,3.92 13.80,3.94 14.02,4.02 14.24,4.09 14.44,4.22 14.63,4.34 14.79,4.51 14.95,4.68 15.06,4.88 15.17,5.08 15.24,5.31 15.30,5.53 15.31,5.76 15.31,5.99 15.26,6.22 15.22,6.45 14.81,8.01 14.41,9.58 13.62,12.17 12.83,14.75 11.87,17.58 10.90,20.40 10.02,21.35 9.14,22.30 8.28,23.37 7.42,24.43 5.98,26.42 4.54,28.41 2.95,28.62 1.37,28.84 0.42,27.91 -0.52,26.97 -1.27,26.08 -2.02,25.18 -2.19,24.05 -2.36,22.92 -2.80,21.24 -3.25,19.56 -3.26,17.42 -3.26,15.29 -3.23,12.65 -3.20,10.00 -3.06,7.32 -2.92,4.63 -2.53,2.10 -2.14,-0.42 -2.06,-0.67 -1.98,-0.93 -1.84,-1.15 -1.70,-1.37 -1.51,-1.56 -1.32,-1.74 -1.09,-1.87 -0.86,-2.01 -0.61,-2.08 -0.35,-2.15 -0.09,-2.17 0.16,-2.18 0.42,-2.13 0.68,-2.07 0.92,-1.96 1.16,-1.85 1.36,-1.68 1.57,-1.52 1.73,-1.31 1.89,-1.10 1.99,-0.85 2.10,-0.61 2.14,-0.35 2.18,-0.09 2.16,0.16 2.14,0.42 2.14,0.42 L 2.14,0.42 Z"></path></g><g transform="translate(634.625980655818 278.2031973105477) rotate(0 0.00005000000010113581 0.00004999999873689376)" stroke="none"><path fill="#1e1e1e" d="M 1.57,-1.57 Q 1.57,-1.57 1.77,-1.27 1.98,-0.98 2.09,-0.64 2.20,-0.29 2.19,0.05 2.18,0.41 2.05,0.75 1.93,1.09 1.70,1.37 1.48,1.65 1.18,1.84 0.87,2.04 0.52,2.12 0.18,2.21 -0.17,2.18 -0.53,2.15 -0.86,2.01 -1.19,1.87 -1.46,1.63 -1.73,1.39 -1.90,1.07 -2.08,0.76 -2.15,0.41 -2.21,0.05 -2.17,-0.29 -2.12,-0.65 -1.96,-0.97 -1.80,-1.29 -1.54,-1.54 -1.29,-1.80 -0.97,-1.96 -0.65,-2.12 -0.29,-2.17 0.06,-2.21 0.41,-2.15 0.76,-2.08 1.07,-1.90 1.39,-1.73 1.63,-1.46 1.87,-1.19 2.01,-0.86 2.15,-0.53 2.18,-0.17 2.21,0.18 2.12,0.52 2.03,0.87 1.84,1.18 1.65,1.48 1.37,1.70 1.09,1.93 0.75,2.05 0.41,2.18 0.05,2.19 -0.30,2.20 -0.64,2.09 -0.98,1.98 -1.27,1.77 -1.57,1.56 -1.57,1.57 -1.57,1.57 -1.73,1.35 -1.90,1.14 -2.01,0.90 -2.12,0.66 -2.16,0.39 -2.21,0.13 -2.20,-0.13 -2.18,-0.40 -2.10,-0.65 -2.02,-0.91 -1.88,-1.14 -1.74,-1.36 -1.55,-1.55 -1.36,-1.74 -1.14,-1.88 -0.91,-2.02 -0.65,-2.10 -0.40,-2.18 -0.13,-2.20 0.13,-2.21 0.39,-2.16 0.66,-2.12 0.90,-2.01 1.14,-1.90 1.35,-1.73 1.57,-1.57 1.57,-1.57 L 1.57,-1.57 Z"></path></g><g transform="translate(648.5811950010454 279.947582467692) rotate(0 0.8721925785730491 0)" stroke="none"><path fill="#1e1e1e" d="M 2.12,-0.66 Q 2.12,-0.66 2.15,-0.13 2.18,0.40 1.96,0.88 1.74,1.36 1.32,1.69 0.91,2.02 0.38,2.12 -0.13,2.21 -0.64,2.05 -1.14,1.90 -1.52,1.52 -1.90,1.14 -2.05,0.64 -2.21,0.13 -2.12,-0.38 -2.02,-0.91 -1.69,-1.32 -1.36,-1.74 -0.88,-1.96 -0.39,-2.18 0.13,-2.15 0.66,-2.11 1.11,-1.84 1.57,-1.56 1.84,-1.11 L 2.12,-0.66 Z"></path></g><g transform="translate(667.7696979057689 279.947582467692) rotate(0 0.00005000000010113581 0.00004999999873689376)" stroke="none"><path fill="#1e1e1e" d="M 1.57,-1.57 Q 1.57,-1.57 1.77,-1.27 1.98,-0.98 2.09,-0.64 2.20,-0.29 2.19,0.05 2.18,0.41 2.05,0.75 1.93,1.09 1.70,1.37 1.48,1.65 1.18,1.84 0.87,2.04 0.52,2.12 0.18,2.21 -0.17,2.18 -0.53,2.15 -0.86,2.01 -1.19,1.87 -1.46,1.63 -1.73,1.39 -1.90,1.07 -2.08,0.76 -2.15,0.41 -2.21,0.05 -2.17,-0.29 -2.12,-0.65 -1.96,-0.97 -1.80,-1.29 -1.54,-1.54 -1.29,-1.80 -0.97,-1.96 -0.65,-2.12 -0.29,-2.17 0.06,-2.21 0.41,-2.15 0.76,-2.08 1.07,-1.90 1.39,-1.73 1.63,-1.46 1.87,-1.19 2.01,-0.86 2.15,-0.53 2.18,-0.17 2.21,0.18 2.12,0.52 2.03,0.87 1.84,1.18 1.65,1.48 1.37,1.70 1.09,1.93 0.75,2.05 0.41,2.18 0.05,2.19 -0.30,2.20 -0.64,2.09 -0.98,1.98 -1.27,1.77 -1.57,1.56 -1.57,1.57 -1.57,1.57 -1.73,1.35 -1.90,1.14 -2.01,0.90 -2.12,0.66 -2.16,0.39 -2.21,0.13 -2.20,-0.13 -2.18,-0.40 -2.10,-0.65 -2.02,-0.91 -1.88,-1.14 -1.74,-1.36 -1.55,-1.55 -1.36,-1.74 -1.14,-1.88 -0.91,-2.02 -0.65,-2.10 -0.40,-2.18 -0.13,-2.20 0.13,-2.21 0.39,-2.16 0.66,-2.12 0.90,-2.01 1.14,-1.90 1.35,-1.73 1.57,-1.57 1.57,-1.57 L 1.57,-1.57 Z"></path></g><g stroke-linecap="round" transform="translate(1042.594516774109 326.7286747127582) rotate(0 44.94337665867715 47.37268512685114)"><path d="M22.47 0 C29.68 3.25, 39.97 4.17, 67.42 0 M22.47 0 C34.26 -0.03, 47.51 0.06, 67.42 0 M67.42 0 C79.01 1.64, 89.81 7.43, 89.89 22.47 M67.42 0 C79.88 0.11, 94.49 6.67, 89.89 22.47 M89.89 22.47 C90.28 37.52, 91.92 43.5, 89.89 72.27 M89.89 22.47 C89.02 32.5, 89.43 44.85, 89.89 72.27 M89.89 72.27 C86.43 85.75, 83.4 93.06, 67.42 94.75 M89.89 72.27 C87.99 89.25, 81.51 98.71, 67.42 94.75 M67.42 94.75 C58.03 97.43, 44.77 91.08, 22.47 94.75 M67.42 94.75 C51.82 93.83, 36.64 93.88, 22.47 94.75 M22.47 94.75 C6.76 93.59, 0.23 84.7, 0 72.27 M22.47 94.75 C6.94 98.26, 0.12 90.13, 0 72.27 M0 72.27 C-0.55 50.95, 0.98 34.89, 0 22.47 M0 72.27 C1.67 57.5, -1.32 41.73, 0 22.47 M0 22.47 C-0.57 8.82, 3.94 2.69, 22.47 0 M0 22.47 C-2.86 8.65, 4.36 -2.46, 22.47 0" stroke="#1e1e1e" stroke-width="4" fill="none"></path></g><g stroke-linecap="round" transform="translate(1144.0206417010947 328.2470301538051) rotate(0 44.94337665867715 47.37268512685114)"><path d="M22.47 0 C28.38 2.75, 39.42 2.05, 67.42 0 M22.47 0 C32.21 -0.39, 39.17 1.22, 67.42 0 M67.42 0 C82.32 -0.07, 87.7 7.58, 89.89 22.47 M67.42 0 C86.99 -0.82, 87 3.72, 89.89 22.47 M89.89 22.47 C93.04 36.04, 86.8 54.26, 89.89 72.27 M89.89 22.47 C89.2 40.82, 87.8 56.56, 89.89 72.27 M89.89 72.27 C90.89 85.57, 80.75 96.48, 67.42 94.75 M89.89 72.27 C89 91.22, 79.77 94.77, 67.42 94.75 M67.42 94.75 C55.72 92.32, 46.64 97.65, 22.47 94.75 M67.42 94.75 C53.15 93.7, 41.65 93.83, 22.47 94.75 M22.47 94.75 C7.72 92.19, -0.48 90.31, 0 72.27 M22.47 94.75 C7.61 97.62, 2.86 83.04, 0 72.27 M0 72.27 C0.43 52.16, 0.91 34.18, 0 22.47 M0 72.27 C-2.21 53.25, -1.06 33.51, 0 22.47 M0 22.47 C-3.56 10.18, 5 1.01, 22.47 0 M0 22.47 C-3.13 5.03, 5.26 0.52, 22.47 0" stroke="#1e1e1e" stroke-width="4" fill="none"></path></g><g stroke-linecap="round" transform="translate(1241.438433215713 326.72867512314406) rotate(0 44.94337665867715 47.37268512685114)"><path d="M22.47 0 C37.51 1.84, 50.93 -1.65, 67.42 0 M22.47 0 C32.27 1.18, 45.41 0.32, 67.42 0 M67.42 0 C80.21 0.09, 93.89 6.78, 89.89 22.47 M67.42 0 C79.51 -3.77, 91.02 8.88, 89.89 22.47 M89.89 22.47 C87.21 40.89, 92.59 58.94, 89.89 72.27 M89.89 22.47 C88 34.93, 90.23 48.05, 89.89 72.27 M89.89 72.27 C88.24 88.99, 81.63 98.2, 67.42 94.75 M89.89 72.27 C87.26 87.28, 79.74 96.5, 67.42 94.75 M67.42 94.75 C51.33 96.23, 32.56 92.06, 22.47 94.75 M67.42 94.75 C55.26 93.85, 43.95 93.15, 22.47 94.75 M22.47 94.75 C7.01 97.8, 0.1 89.75, 0 72.27 M22.47 94.75 C10.35 90.53, 3.58 85.57, 0 72.27 M0 72.27 C0.53 60.96, 3.82 53.69, 0 22.47 M0 72.27 C0.43 55.89, -1.06 39.52, 0 22.47 M0 22.47 C-2.49 8.5, 4.77 -2.14, 22.47 0 M0 22.47 C-2.23 8.01, 3.15 1.43, 22.47 0" stroke="#1e1e1e" stroke-width="4" fill="none"></path></g><g stroke-linecap="round" transform="translate(1340.0621244486995 324.743518608615) rotate(0 44.94337665867715 47.37268512685114)"><path d="M22.47 0 C35.83 -1.49, 55.04 0.5, 67.42 0 M22.47 0 C34.14 -0.4, 44.78 -0.32, 67.42 0 M67.42 0 C86.39 -0.71, 87.38 4.21, 89.89 22.47 M67.42 0 C83.53 1.39, 93.6 10.77, 89.89 22.47 M89.89 22.47 C91.04 32.71, 87.65 45.23, 89.89 72.27 M89.89 22.47 C89.53 38.87, 88.2 57.83, 89.89 72.27 M89.89 72.27 C89.12 90.71, 80.11 94.77, 67.42 94.75 M89.89 72.27 C87.23 89.01, 86.08 93.82, 67.42 94.75 M67.42 94.75 C56.76 93.26, 46 92.1, 22.47 94.75 M67.42 94.75 C55.64 93.21, 43.4 96.01, 22.47 94.75 M22.47 94.75 C7.59 97.24, 2.49 83.59, 0 72.27 M22.47 94.75 C11.07 93.06, -3.78 87.34, 0 72.27 M0 72.27 C3.7 62.07, 1.56 42.75, 0 22.47 M0 72.27 C-1.64 56.95, -1.1 39.44, 0 22.47 M0 22.47 C-2.72 5.35, 5.55 0.45, 22.47 0 M0 22.47 C-4.34 8.92, 3.55 1.82, 22.47 0" stroke="#1e1e1e" stroke-width="4" fill="none"></path></g><g stroke-linecap="round" transform="translate(1441.4882491727437 328.25285617462214) rotate(0 44.94337665867715 47.37268512685114)"><path d="M22.47 0 C37.08 1.28, 53.65 -3.19, 67.42 0 M22.47 0 C36.7 0.06, 55.12 -0.34, 67.42 0 M67.42 0 C79.89 -3.28, 90.87 8.7, 89.89 22.47 M67.42 0 C86.11 3.28, 86.89 3.6, 89.89 22.47 M89.89 22.47 C88.99 36.09, 92.24 47.53, 89.89 72.27 M89.89 22.47 C89.31 36.4, 89.75 50.32, 89.89 72.27 M89.89 72.27 C87.6 87.27, 80.09 96.27, 67.42 94.75 M89.89 72.27 C93.57 86.33, 78.78 95.89, 67.42 94.75 M67.42 94.75 C49.97 91.16, 34.11 93.57, 22.47 94.75 M67.42 94.75 C54.99 95.7, 43.11 95.42, 22.47 94.75 M22.47 94.75 C9.98 91.08, 3.11 85.79, 0 72.27 M22.47 94.75 C3.71 94.83, -1.49 87.88, 0 72.27 M0 72.27 C0.74 55.03, 0.43 42.97, 0 22.47 M0 72.27 C-0.36 56.18, -0.47 38.01, 0 22.47 M0 22.47 C-1.94 7.94, 3.72 1.24, 22.47 0 M0 22.47 C-3.94 9.31, 5.99 -0.76, 22.47 0" stroke="#1e1e1e" stroke-width="4" fill="none"></path></g><g transform="translate(1093.624321789748 361.7104201990951) rotate(0 -0.8721925785732765 14.8274901038385)" stroke="none"><path fill="#1e1e1e" d="M 0.86,1.72 Q 0.86,1.72 -1.18,2.65 -3.22,3.57 -4.44,4.47 -5.66,5.36 -7.11,7.05 -8.56,8.74 -10.76,11.50 -12.96,14.25 -14.34,16.82 -15.73,19.38 -16.29,21.84 -16.86,24.31 -17.04,25.90 -17.21,27.49 -17.22,28.62 -17.22,29.75 -16.89,30.76 -16.56,31.77 -14.00,32.19 -11.44,32.61 -9.16,32.79 -6.89,32.98 -4.41,33.09 -1.94,33.19 -0.08,32.78 1.77,32.38 4.41,30.32 7.04,28.26 9.19,25.92 11.34,23.58 12.74,21.63 14.14,19.68 14.67,17.52 15.20,15.37 15.35,13.90 15.50,12.43 15.64,10.37 15.78,8.32 15.73,6.93 15.68,5.55 15.19,4.21 14.70,2.87 14.47,1.12 14.23,-0.62 13.37,-1.84 12.52,-3.05 11.41,-2.85 10.31,-2.65 8.43,-2.64 6.55,-2.63 4.95,-1.33 3.35,-0.03 3.04,0.27 2.73,0.58 2.34,0.77 1.95,0.97 1.52,1.03 1.08,1.09 0.65,1.00 0.22,0.92 -0.15,0.71 -0.53,0.49 -0.82,0.17 -1.12,-0.15 -1.29,-0.55 -1.46,-0.96 -1.50,-1.39 -1.54,-1.83 -1.43,-2.25 -1.32,-2.68 -1.09,-3.05 -0.85,-3.42 -0.51,-3.69 -0.17,-3.97 0.23,-4.12 0.64,-4.27 1.08,-4.28 1.52,-4.29 1.94,-4.17 2.36,-4.04 2.71,-3.78 3.07,-3.53 3.32,-3.17 3.58,-2.81 3.71,-2.40 3.84,-1.98 3.82,-1.54 3.81,-1.10 3.66,-0.69 3.51,-0.28 3.24,0.05 2.96,0.39 2.59,0.63 2.22,0.87 1.80,0.97 1.37,1.08 0.94,1.04 0.50,1.01 0.10,0.83 -0.29,0.66 -0.62,0.37 -0.95,0.08 -1.16,-0.29 -1.38,-0.68 -1.46,-1.11 -1.54,-1.54 -1.48,-1.97 -1.42,-2.40 -1.23,-2.80 -1.04,-3.19 -1.04,-3.19 -1.04,-3.19 0.54,-4.62 2.13,-6.05 3.06,-6.75 4.00,-7.45 6.33,-7.53 8.65,-7.61 9.75,-7.49 10.85,-7.38 12.51,-7.07 14.17,-6.76 15.29,-5.21 16.41,-3.66 17.09,-2.51 17.76,-1.36 17.94,0.24 18.11,1.86 18.59,3.73 19.06,5.60 18.92,7.04 18.77,8.48 18.69,10.72 18.60,12.96 18.23,14.51 17.86,16.06 17.16,18.65 16.45,21.24 14.95,23.37 13.46,25.50 11.15,28.05 8.84,30.60 5.71,32.96 2.57,35.32 0.29,35.88 -1.98,36.43 -4.52,36.44 -7.06,36.44 -9.50,36.40 -11.95,36.35 -14.29,36.04 -16.63,35.74 -18.15,34.63 -19.66,33.53 -20.24,31.52 -20.82,29.51 -20.61,28.25 -20.39,26.99 -20.05,25.33 -19.71,23.66 -19.07,20.82 -18.42,17.98 -16.96,15.15 -15.49,12.31 -13.33,9.44 -11.18,6.57 -9.48,4.46 -7.77,2.35 -6.28,1.39 -4.80,0.43 -2.83,-0.64 -0.86,-1.72 -0.64,-1.79 -0.42,-1.87 -0.19,-1.90 0.03,-1.92 0.26,-1.89 0.49,-1.85 0.71,-1.77 0.92,-1.68 1.11,-1.55 1.30,-1.41 1.45,-1.23 1.60,-1.06 1.70,-0.85 1.81,-0.64 1.86,-0.42 1.91,-0.19 1.91,0.03 1.90,0.26 1.84,0.49 1.78,0.71 1.67,0.92 1.56,1.12 1.40,1.29 1.24,1.46 1.05,1.59 0.86,1.72 0.86,1.72 L 0.86,1.72 Z"></path></g><g transform="translate(1172.1228516538438 366.94364221457363) rotate(0 13.083088310682797 10.466477302947169)" stroke="none"><path fill="#1e1e1e" d="M 0.51,-2.05 Q 0.51,-2.05 2.49,-1.46 4.47,-0.87 6.19,-0.66 7.90,-0.44 9.39,-0.83 10.88,-1.21 12.50,-1.81 14.11,-2.42 15.06,-3.51 16.00,-4.60 16.93,-6.01 17.86,-7.41 18.17,-8.82 18.47,-10.23 18.58,-11.45 18.69,-12.68 18.78,-12.91 18.87,-13.14 19.02,-13.33 19.16,-13.53 19.34,-13.69 19.53,-13.85 19.75,-13.96 19.97,-14.07 20.20,-14.13 20.44,-14.18 20.69,-14.18 20.93,-14.17 21.17,-14.11 21.40,-14.05 21.62,-13.93 21.83,-13.81 22.01,-13.65 22.19,-13.48 22.33,-13.28 22.46,-13.08 22.54,-12.85 22.63,-12.62 22.65,-12.37 22.68,-12.13 22.64,-11.89 22.61,-11.65 21.99,-10.77 21.37,-9.89 20.83,-8.47 20.29,-7.04 19.97,-5.05 19.65,-3.06 19.47,-0.68 19.29,1.69 19.19,4.71 19.09,7.73 18.52,11.62 17.96,15.51 17.71,17.60 17.47,19.69 17.48,21.08 17.48,22.47 16.94,24.29 16.40,26.11 15.65,27.50 14.91,28.89 13.84,30.65 12.78,32.42 11.71,33.68 10.65,34.94 9.58,35.21 8.51,35.48 7.69,35.58 6.87,35.68 6.55,35.69 6.23,35.70 5.92,35.64 5.61,35.57 5.32,35.44 5.03,35.30 4.78,35.10 4.54,34.89 4.35,34.64 4.15,34.38 4.03,34.09 3.91,33.80 3.85,33.48 3.80,33.17 3.83,32.85 3.86,32.53 3.96,32.23 4.06,31.92 4.23,31.65 4.40,31.38 4.63,31.16 4.86,30.94 5.14,30.78 5.41,30.62 5.72,30.54 6.03,30.45 7.21,29.75 8.38,29.05 10.54,29.07 12.69,29.09 14.56,29.12 16.42,29.15 18.22,29.18 20.02,29.21 21.49,29.24 22.97,29.27 24.07,29.92 25.17,30.57 26.67,31.97 28.17,33.36 28.29,33.74 28.42,34.12 28.42,34.52 28.42,34.93 28.29,35.31 28.16,35.69 27.91,36.01 27.67,36.32 27.33,36.55 27.00,36.77 26.61,36.88 26.22,36.98 25.82,36.96 25.42,36.94 25.05,36.79 24.67,36.63 24.37,36.37 24.06,36.11 23.86,35.77 23.65,35.42 23.57,35.03 23.48,34.63 23.53,34.23 23.58,33.83 23.75,33.47 23.92,33.11 24.19,32.82 24.47,32.53 24.83,32.34 25.19,32.15 25.58,32.09 25.98,32.03 26.38,32.09 26.77,32.16 27.13,32.35 27.48,32.54 27.76,32.83 28.03,33.13 28.20,33.49 28.36,33.86 28.41,34.26 28.45,34.66 28.36,35.05 28.27,35.44 28.06,35.79 27.85,36.13 27.54,36.39 27.24,36.65 26.86,36.79 26.49,36.94 26.09,36.96 25.68,36.98 25.30,36.87 24.91,36.76 24.58,36.53 24.25,36.31 24.01,35.99 23.76,35.66 23.76,35.66 23.76,35.66 21.91,34.65 20.06,33.63 18.29,33.68 16.52,33.74 14.71,33.85 12.91,33.96 10.56,33.90 8.21,33.85 7.54,34.76 6.87,35.68 6.55,35.69 6.23,35.70 5.92,35.64 5.61,35.57 5.32,35.44 5.03,35.30 4.78,35.10 4.54,34.89 4.35,34.64 4.15,34.38 4.03,34.09 3.91,33.80 3.85,33.48 3.80,33.17 3.83,32.85 3.86,32.53 3.96,32.23 4.06,31.92 4.23,31.65 4.40,31.38 4.63,31.16 4.86,30.94 5.14,30.78 5.41,30.62 5.72,30.54 6.03,30.45 7.51,30.69 9.00,30.93 9.94,29.99 10.87,29.06 11.27,27.99 11.67,26.92 12.38,25.95 13.10,24.97 13.64,23.60 14.19,22.22 14.38,20.80 14.58,19.39 14.78,17.25 14.98,15.10 15.46,11.39 15.94,7.67 15.95,4.59 15.95,1.52 16.02,-1.00 16.08,-3.53 16.34,-6.00 16.60,-8.48 17.65,-10.58 18.69,-12.68 18.78,-12.91 18.87,-13.14 19.02,-13.33 19.16,-13.53 19.34,-13.69 19.53,-13.85 19.75,-13.96 19.97,-14.07 20.20,-14.13 20.44,-14.18 20.69,-14.18 20.93,-14.17 21.17,-14.11 21.40,-14.05 21.62,-13.93 21.83,-13.81 22.01,-13.65 22.19,-13.48 22.33,-13.28 22.46,-13.08 22.54,-12.85 22.63,-12.62 22.65,-12.37 22.68,-12.13 22.64,-11.89 22.61,-11.65 22.35,-10.46 22.09,-9.27 21.51,-7.35 20.94,-5.44 19.80,-3.74 18.66,-2.04 17.11,-0.55 15.55,0.93 13.64,1.68 11.72,2.43 9.63,2.87 7.54,3.30 5.54,3.09 3.54,2.87 1.51,2.46 -0.51,2.05 -0.75,1.95 -0.98,1.86 -1.19,1.72 -1.40,1.57 -1.57,1.38 -1.74,1.19 -1.86,0.96 -1.97,0.74 -2.03,0.49 -2.09,0.24 -2.09,-0.00 -2.09,-0.26 -2.03,-0.50 -1.97,-0.75 -1.85,-0.98 -1.73,-1.20 -1.56,-1.39 -1.39,-1.58 -1.18,-1.73 -0.97,-1.87 -0.73,-1.96 -0.49,-2.05 -0.24,-2.08 0.00,-2.11 0.26,-2.08 0.51,-2.05 0.51,-2.05 L 0.51,-2.05 Z"></path></g><g transform="translate(1275.6461234966976 365.6339279833919) rotate(0 11.338636609508058 12.210895732110657)" stroke="none"><path fill="#1e1e1e" d="M -1.82,-1.82 Q -1.82,-1.82 -0.79,-2.84 0.23,-3.85 1.50,-4.55 2.77,-5.26 3.94,-5.56 5.11,-5.87 6.27,-5.98 7.42,-6.08 9.06,-5.40 10.69,-4.72 11.57,-3.55 12.44,-2.39 13.51,0.13 14.57,2.66 14.72,3.87 14.87,5.07 14.88,6.70 14.89,8.32 14.31,9.99 13.72,11.66 12.87,12.90 12.02,14.13 11.21,15.43 10.40,16.73 9.28,17.68 8.16,18.62 7.10,19.78 6.03,20.93 5.15,21.87 4.26,22.82 3.80,23.67 3.34,24.52 2.99,24.63 2.64,24.73 2.28,24.75 1.92,24.77 1.56,24.70 1.20,24.63 0.87,24.48 0.54,24.32 0.26,24.10 -0.01,23.87 -0.23,23.58 -0.46,23.29 -0.60,22.96 -0.75,22.63 -0.81,22.27 -0.87,21.91 -0.84,21.55 -0.82,21.19 -0.71,20.84 -0.60,20.50 -0.41,20.19 -0.21,19.88 0.04,19.62 0.29,19.37 0.61,19.19 0.92,19.00 2.83,19.21 4.74,19.41 5.83,19.51 6.91,19.60 8.42,19.71 9.94,19.82 11.60,19.92 13.27,20.01 15.31,20.65 17.35,21.29 18.61,21.54 19.86,21.79 21.98,23.71 24.09,25.63 24.33,25.98 24.57,26.32 24.69,26.73 24.80,27.13 24.78,27.55 24.76,27.97 24.61,28.37 24.46,28.76 24.19,29.08 23.92,29.40 23.56,29.62 23.20,29.84 22.79,29.94 22.38,30.03 21.96,29.99 21.54,29.94 21.15,29.77 20.77,29.60 20.46,29.31 20.16,29.02 19.96,28.65 19.76,28.28 19.69,27.86 19.61,27.45 19.68,27.03 19.75,26.62 19.94,26.24 20.13,25.87 20.44,25.58 20.74,25.29 21.12,25.11 21.50,24.93 21.92,24.88 22.34,24.83 22.75,24.92 23.16,25.01 23.53,25.22 23.89,25.44 24.16,25.76 24.44,26.08 24.60,26.47 24.76,26.86 24.78,27.28 24.81,27.70 24.70,28.10 24.59,28.51 24.35,28.86 24.12,29.21 23.79,29.47 23.45,29.72 23.05,29.86 22.66,30.00 22.23,30.00 21.81,30.00 21.41,29.87 21.01,29.74 20.68,29.49 20.34,29.23 20.34,29.23 20.34,29.23 19.35,27.82 18.35,26.40 17.15,26.22 15.94,26.04 14.55,25.66 13.15,25.28 11.46,25.33 9.77,25.38 8.11,25.40 6.44,25.41 4.89,24.97 3.34,24.52 2.99,24.62 2.64,24.73 2.28,24.75 1.92,24.77 1.56,24.70 1.20,24.63 0.87,24.48 0.54,24.32 0.26,24.10 -0.01,23.87 -0.23,23.58 -0.46,23.29 -0.60,22.96 -0.75,22.63 -0.81,22.27 -0.87,21.91 -0.84,21.55 -0.82,21.19 -0.71,20.84 -0.60,20.50 -0.41,20.19 -0.21,19.88 0.04,19.62 0.29,19.37 0.61,19.19 0.92,19.00 1.27,18.71 1.63,18.42 2.57,17.51 3.52,16.59 4.71,15.27 5.91,13.95 6.70,12.41 7.50,10.88 8.43,9.58 9.37,8.29 9.28,7.00 9.19,5.70 9.06,3.98 8.93,2.26 7.56,0.84 6.18,-0.56 4.98,-0.36 3.77,-0.15 2.80,0.83 1.82,1.82 1.58,2.02 1.33,2.21 1.05,2.34 0.76,2.46 0.46,2.52 0.15,2.58 -0.15,2.56 -0.46,2.54 -0.76,2.45 -1.06,2.35 -1.32,2.19 -1.59,2.03 -1.81,1.81 -2.03,1.59 -2.19,1.32 -2.35,1.06 -2.45,0.76 -2.54,0.46 -2.56,0.15 -2.58,-0.15 -2.52,-0.46 -2.46,-0.76 -2.34,-1.05 -2.21,-1.33 -2.02,-1.58 -1.82,-1.82 -1.82,-1.82 L -1.82,-1.82 Z"></path></g><g transform="translate(1381.8936059299815 359.3800398670646) rotate(0 13.08308831068257 20.060728755310265)" stroke="none"><path fill="#1e1e1e" d="M -0.68,-2.06 Q -0.68,-2.06 0.81,-2.56 2.31,-3.07 3.88,-3.72 5.46,-4.38 7.41,-4.74 9.36,-5.10 11.98,-4.59 14.59,-4.09 16.88,-2.18 19.18,-0.27 20.22,1.06 21.25,2.40 21.79,3.59 22.32,4.78 23.36,7.42 24.40,10.06 23.38,12.22 22.37,14.37 21.43,16.03 20.50,17.69 22.02,19.44 23.54,21.20 24.47,22.28 25.40,23.37 26.74,24.58 28.07,25.79 28.36,26.91 28.65,28.02 28.75,30.48 28.86,32.94 28.26,34.56 27.67,36.18 26.89,37.65 26.11,39.12 25.04,40.87 23.97,42.63 21.59,43.67 19.21,44.70 17.79,45.07 16.37,45.44 15.20,45.64 14.04,45.83 11.69,45.97 9.35,46.10 8.95,46.05 8.54,45.99 8.18,45.81 7.82,45.63 7.53,45.34 7.24,45.05 7.06,44.69 6.88,44.32 6.83,43.92 6.77,43.52 6.85,43.12 6.93,42.72 7.13,42.37 7.33,42.01 7.63,41.74 7.94,41.47 8.31,41.31 8.68,41.15 9.09,41.12 9.49,41.09 9.89,41.19 10.28,41.29 10.62,41.51 10.97,41.73 11.22,42.04 11.47,42.36 11.61,42.74 11.75,43.12 11.76,43.53 11.77,43.94 11.65,44.32 11.53,44.71 11.29,45.04 11.06,45.37 10.73,45.61 10.40,45.84 10.01,45.96 9.62,46.08 9.21,46.07 8.81,46.06 8.42,45.92 8.04,45.77 7.73,45.52 7.41,45.26 7.19,44.92 6.98,44.58 6.88,44.18 6.78,43.79 6.82,43.38 6.85,42.98 7.01,42.61 7.17,42.23 7.44,41.93 7.72,41.63 8.07,41.43 8.42,41.23 8.82,41.16 9.22,41.08 9.22,41.08 9.22,41.08 12.28,40.99 15.33,40.90 16.48,40.68 17.63,40.47 18.95,40.12 20.26,39.78 20.80,38.29 21.34,36.80 22.36,34.80 23.39,32.81 23.34,31.58 23.28,30.36 23.48,29.02 23.68,27.69 22.36,26.44 21.04,25.19 19.49,24.34 17.95,23.49 16.62,22.13 15.30,20.77 15.23,19.52 15.16,18.28 16.07,16.99 16.97,15.70 17.79,14.00 18.62,12.29 19.26,10.40 19.90,8.51 19.02,6.50 18.15,4.48 17.53,3.41 16.91,2.33 15.31,0.92 13.71,-0.49 11.86,-0.73 10.02,-0.97 8.57,-0.73 7.12,-0.48 5.41,0.29 3.70,1.07 2.19,1.56 0.68,2.06 0.43,2.11 0.17,2.16 -0.08,2.15 -0.34,2.14 -0.60,2.07 -0.85,1.99 -1.08,1.86 -1.30,1.73 -1.49,1.55 -1.68,1.37 -1.82,1.15 -1.96,0.93 -2.04,0.68 -2.13,0.43 -2.15,0.17 -2.17,-0.08 -2.13,-0.34 -2.08,-0.60 -1.98,-0.84 -1.88,-1.08 -1.72,-1.29 -1.56,-1.50 -1.36,-1.67 -1.16,-1.83 -0.92,-1.95 -0.68,-2.06 -0.68,-2.06 L -0.68,-2.06 Z"></path></g><g transform="translate(1476.317943541654 347.7126734224512) rotate(0 6.105348050012481 26.166159985357808)" stroke="none"><path fill="#1e1e1e" d="M 2.14,0.42 Q 2.14,0.42 1.53,2.91 0.91,5.39 0.63,7.85 0.34,10.30 0.19,12.85 0.04,15.40 -0.03,17.48 -0.11,19.55 0.40,20.67 0.92,21.78 1.17,22.84 1.41,23.90 2.53,23.01 3.65,22.13 4.62,20.84 5.59,19.55 6.49,18.49 7.39,17.44 8.18,15.40 8.98,13.36 9.94,10.87 10.90,8.38 11.24,6.79 11.58,5.19 11.69,4.99 11.79,4.78 11.94,4.60 12.08,4.42 12.27,4.28 12.46,4.15 12.67,4.06 12.88,3.97 13.11,3.93 13.34,3.90 13.57,3.92 13.80,3.94 14.02,4.02 14.24,4.09 14.44,4.22 14.63,4.34 14.79,4.51 14.95,4.68 15.06,4.88 15.17,5.08 15.24,5.31 15.30,5.53 15.31,5.76 15.31,5.99 15.26,6.22 15.22,6.45 14.08,7.14 12.94,7.83 12.35,10.55 11.76,13.27 10.84,17.06 9.91,20.85 8.46,24.58 7.00,28.32 5.90,31.81 4.79,35.31 3.80,38.32 2.81,41.34 2.39,43.55 1.98,45.76 1.30,47.05 0.62,48.33 0.50,49.98 0.38,51.62 0.28,51.85 0.18,52.07 0.02,52.27 -0.12,52.46 -0.31,52.61 -0.51,52.76 -0.73,52.86 -0.96,52.96 -1.20,53.01 -1.44,53.05 -1.69,53.03 -1.93,53.02 -2.17,52.95 -2.40,52.87 -2.61,52.74 -2.82,52.62 -3.00,52.44 -3.17,52.27 -3.30,52.06 -3.42,51.85 -3.50,51.61 -3.57,51.38 -3.58,51.13 -3.60,50.88 -3.55,50.64 -3.51,50.40 -0.86,48.88 1.77,47.37 2.09,47.29 2.41,47.21 2.73,47.23 3.06,47.26 3.36,47.39 3.66,47.52 3.91,47.74 4.15,47.96 4.32,48.25 4.48,48.53 4.54,48.85 4.60,49.18 4.56,49.50 4.51,49.83 4.37,50.12 4.22,50.42 3.99,50.65 3.76,50.88 3.46,51.03 3.17,51.17 2.84,51.22 2.52,51.26 2.19,51.20 1.87,51.14 1.58,50.97 1.30,50.81 1.08,50.57 0.86,50.32 0.73,50.02 0.60,49.72 0.57,49.39 0.55,49.07 0.63,48.75 0.71,48.43 0.88,48.15 1.06,47.87 1.32,47.67 1.57,47.46 1.88,47.35 2.19,47.24 2.52,47.23 2.85,47.22 3.16,47.32 3.47,47.41 3.74,47.60 4.01,47.80 4.20,48.06 4.39,48.33 4.49,48.64 4.58,48.96 4.57,49.29 4.56,49.61 4.45,49.92 4.34,50.23 4.13,50.49 3.93,50.74 3.65,50.92 3.37,51.10 3.37,51.10 3.37,51.10 1.88,51.36 0.38,51.62 0.28,51.85 0.18,52.07 0.02,52.27 -0.12,52.46 -0.31,52.61 -0.51,52.76 -0.73,52.86 -0.96,52.96 -1.20,53.01 -1.44,53.05 -1.69,53.03 -1.93,53.02 -2.17,52.95 -2.40,52.87 -2.61,52.74 -2.82,52.62 -3.00,52.44 -3.17,52.27 -3.30,52.06 -3.42,51.85 -3.50,51.61 -3.57,51.38 -3.58,51.13 -3.60,50.88 -3.55,50.64 -3.51,50.40 -3.30,49.54 -3.10,48.68 -1.93,46.92 -0.77,45.16 -0.37,42.81 0.03,40.45 0.96,37.44 1.89,34.42 2.96,30.81 4.02,27.20 5.31,23.65 6.60,20.10 7.41,16.20 8.21,12.30 9.90,8.75 11.58,5.19 11.69,4.99 11.79,4.78 11.94,4.60 12.08,4.42 12.27,4.28 12.46,4.15 12.67,4.06 12.88,3.97 13.11,3.93 13.34,3.90 13.57,3.92 13.80,3.94 14.02,4.02 14.24,4.09 14.44,4.22 14.63,4.34 14.79,4.51 14.95,4.68 15.06,4.88 15.17,5.08 15.24,5.31 15.30,5.53 15.31,5.76 15.31,5.99 15.26,6.22 15.22,6.45 14.81,8.01 14.41,9.58 13.62,12.17 12.83,14.75 11.87,17.58 10.90,20.40 10.02,21.35 9.14,22.30 8.28,23.37 7.42,24.43 5.98,26.42 4.54,28.41 2.95,28.62 1.37,28.84 0.42,27.91 -0.52,26.97 -1.27,26.08 -2.02,25.18 -2.19,24.05 -2.36,22.92 -2.80,21.24 -3.25,19.56 -3.26,17.42 -3.26,15.29 -3.23,12.65 -3.20,10.00 -3.06,7.32 -2.92,4.63 -2.53,2.10 -2.14,-0.42 -2.06,-0.67 -1.98,-0.93 -1.84,-1.15 -1.70,-1.37 -1.51,-1.56 -1.32,-1.74 -1.09,-1.87 -0.86,-2.01 -0.61,-2.08 -0.35,-2.15 -0.09,-2.17 0.16,-2.18 0.42,-2.13 0.68,-2.07 0.92,-1.96 1.16,-1.85 1.36,-1.68 1.57,-1.52 1.73,-1.31 1.89,-1.10 1.99,-0.85 2.10,-0.61 2.14,-0.35 2.18,-0.09 2.16,0.16 2.14,0.42 2.14,0.42 L 2.14,0.42 Z"></path></g><g stroke-linecap="round" transform="translate(1542.9143745850986 332.06808397766144) rotate(0 44.94337665867715 47.37268512685114)"><path d="M22.47 0 C38.74 1.62, 47.28 -3.58, 67.42 0 M22.47 0 C31.64 0.54, 43.27 0.45, 67.42 0 M67.42 0 C78.46 2.34, 90.17 9.3, 89.89 22.47 M67.42 0 C80.94 1.69, 93.88 8.1, 89.89 22.47 M89.89 22.47 C86.82 34.27, 89.16 46.67, 89.89 72.27 M89.89 22.47 C91.42 36.65, 89.3 47.99, 89.89 72.27 M89.89 72.27 C87.07 83.28, 79.94 91.26, 67.42 94.75 M89.89 72.27 C86.32 87.96, 80.07 93.93, 67.42 94.75 M67.42 94.75 C52.82 94.5, 43.89 98.99, 22.47 94.75 M67.42 94.75 C57.67 93.95, 45.66 95.06, 22.47 94.75 M22.47 94.75 C4.84 98.02, -3.64 87.51, 0 72.27 M22.47 94.75 C9.22 93.25, 1.81 87.18, 0 72.27 M0 72.27 C-2.05 61.69, -1.05 54.9, 0 22.47 M0 72.27 C0.42 59.41, 1.11 46.2, 0 22.47 M0 22.47 C0.6 3.96, 8.2 0.41, 22.47 0 M0 22.47 C1.87 6.27, 9.29 2.76, 22.47 0" stroke="#1e1e1e" stroke-width="4" fill="none"></path></g><g transform="translate(1566.5751509739318 390.4347261898947) rotate(0 0.00005000000010113581 0.00004999999873689376)" stroke="none"><path fill="#1e1e1e" d="M 1.57,-1.57 Q 1.57,-1.57 1.77,-1.27 1.98,-0.98 2.09,-0.64 2.20,-0.29 2.19,0.05 2.18,0.41 2.05,0.75 1.93,1.09 1.70,1.37 1.48,1.65 1.18,1.84 0.87,2.04 0.52,2.12 0.18,2.21 -0.17,2.18 -0.53,2.15 -0.86,2.01 -1.19,1.87 -1.46,1.63 -1.73,1.39 -1.90,1.07 -2.08,0.76 -2.15,0.41 -2.21,0.05 -2.17,-0.29 -2.12,-0.65 -1.96,-0.97 -1.80,-1.29 -1.54,-1.54 -1.29,-1.80 -0.97,-1.96 -0.65,-2.12 -0.29,-2.17 0.06,-2.21 0.41,-2.15 0.76,-2.08 1.07,-1.90 1.39,-1.73 1.63,-1.46 1.87,-1.19 2.01,-0.86 2.15,-0.53 2.18,-0.17 2.21,0.18 2.12,0.52 2.03,0.87 1.84,1.18 1.65,1.48 1.37,1.70 1.09,1.93 0.75,2.05 0.41,2.18 0.05,2.19 -0.30,2.20 -0.64,2.09 -0.98,1.98 -1.27,1.77 -1.57,1.56 -1.57,1.57 -1.57,1.57 -1.73,1.35 -1.90,1.14 -2.01,0.90 -2.12,0.66 -2.16,0.39 -2.21,0.13 -2.20,-0.13 -2.18,-0.40 -2.10,-0.65 -2.02,-0.91 -1.88,-1.14 -1.74,-1.36 -1.55,-1.55 -1.36,-1.74 -1.14,-1.88 -0.91,-2.02 -0.65,-2.10 -0.40,-2.18 -0.13,-2.20 0.13,-2.21 0.39,-2.16 0.66,-2.12 0.90,-2.01 1.14,-1.90 1.35,-1.73 1.57,-1.57 1.57,-1.57 L 1.57,-1.57 Z"></path></g><g transform="translate(1580.5303653191593 392.17911134705355) rotate(0 0.8721925785730491 0)" stroke="none"><path fill="#1e1e1e" d="M 2.12,-0.66 Q 2.12,-0.66 2.15,-0.13 2.18,0.40 1.96,0.88 1.74,1.36 1.32,1.69 0.91,2.02 0.38,2.12 -0.13,2.21 -0.64,2.05 -1.14,1.90 -1.52,1.52 -1.90,1.14 -2.05,0.64 -2.21,0.13 -2.12,-0.38 -2.02,-0.91 -1.69,-1.32 -1.36,-1.74 -0.88,-1.96 -0.39,-2.18 0.13,-2.15 0.66,-2.11 1.11,-1.84 1.57,-1.56 1.84,-1.11 L 2.12,-0.66 Z"></path></g><g transform="translate(1599.7188682238818 392.17911134705355) rotate(0 0.00005000000010113581 0.00004999999873689376)" stroke="none"><path fill="#1e1e1e" d="M 1.57,-1.57 Q 1.57,-1.57 1.77,-1.27 1.98,-0.98 2.09,-0.64 2.20,-0.29 2.19,0.05 2.18,0.41 2.05,0.75 1.93,1.09 1.70,1.37 1.48,1.65 1.18,1.84 0.87,2.04 0.52,2.12 0.18,2.21 -0.17,2.18 -0.53,2.15 -0.86,2.01 -1.19,1.87 -1.46,1.63 -1.73,1.39 -1.90,1.07 -2.08,0.76 -2.15,0.41 -2.21,0.05 -2.17,-0.29 -2.12,-0.65 -1.96,-0.97 -1.80,-1.29 -1.54,-1.54 -1.29,-1.80 -0.97,-1.96 -0.65,-2.12 -0.29,-2.17 0.06,-2.21 0.41,-2.15 0.76,-2.08 1.07,-1.90 1.39,-1.73 1.63,-1.46 1.87,-1.19 2.01,-0.86 2.15,-0.53 2.18,-0.17 2.21,0.18 2.12,0.52 2.03,0.87 1.84,1.18 1.65,1.48 1.37,1.70 1.09,1.93 0.75,2.05 0.41,2.18 0.05,2.19 -0.30,2.20 -0.64,2.09 -0.98,1.98 -1.27,1.77 -1.57,1.56 -1.57,1.57 -1.57,1.57 -1.73,1.35 -1.90,1.14 -2.01,0.90 -2.12,0.66 -2.16,0.39 -2.21,0.13 -2.20,-0.13 -2.18,-0.40 -2.10,-0.65 -2.02,-0.91 -1.88,-1.14 -1.74,-1.36 -1.55,-1.55 -1.36,-1.74 -1.14,-1.88 -0.91,-2.02 -0.65,-2.10 -0.40,-2.18 -0.13,-2.20 0.13,-2.21 0.39,-2.16 0.66,-2.12 0.90,-2.01 1.14,-1.90 1.35,-1.73 1.57,-1.57 1.57,-1.57 L 1.57,-1.57 Z"></path></g><g transform="translate(1665.5733129200023 417.75613929115934) rotate(0 0.00005000000010113581 0.00004999999873689376)" stroke="none"><path fill="#1e1e1e" d="M 1.57,-1.57 Q 1.57,-1.57 1.77,-1.27 1.98,-0.98 2.09,-0.64 2.20,-0.29 2.19,0.05 2.18,0.41 2.05,0.75 1.93,1.09 1.70,1.37 1.48,1.65 1.18,1.84 0.87,2.04 0.52,2.12 0.18,2.21 -0.17,2.18 -0.53,2.15 -0.86,2.01 -1.19,1.87 -1.46,1.63 -1.73,1.39 -1.90,1.07 -2.08,0.76 -2.15,0.41 -2.21,0.05 -2.17,-0.29 -2.12,-0.65 -1.96,-0.97 -1.80,-1.29 -1.54,-1.54 -1.29,-1.80 -0.97,-1.96 -0.65,-2.12 -0.29,-2.17 0.06,-2.21 0.41,-2.15 0.76,-2.08 1.07,-1.90 1.39,-1.73 1.63,-1.46 1.87,-1.19 2.01,-0.86 2.15,-0.53 2.18,-0.17 2.21,0.18 2.12,0.52 2.03,0.87 1.84,1.18 1.65,1.48 1.37,1.70 1.09,1.93 0.75,2.05 0.41,2.18 0.05,2.19 -0.30,2.20 -0.64,2.09 -0.98,1.98 -1.27,1.77 -1.57,1.56 -1.57,1.57 -1.57,1.57 -1.73,1.35 -1.90,1.14 -2.01,0.90 -2.12,0.66 -2.16,0.39 -2.21,0.13 -2.20,-0.13 -2.18,-0.40 -2.10,-0.65 -2.02,-0.91 -1.88,-1.14 -1.74,-1.36 -1.55,-1.55 -1.36,-1.74 -1.14,-1.88 -0.91,-2.02 -0.65,-2.10 -0.40,-2.18 -0.13,-2.20 0.13,-2.21 0.39,-2.16 0.66,-2.12 0.90,-2.01 1.14,-1.90 1.35,-1.73 1.57,-1.57 1.57,-1.57 L 1.57,-1.57 Z"></path></g><g transform="translate(1693.4840077865704 417.75613929115934) rotate(0 0.00005000000010113581 0.00004999999873689376)" stroke="none"><path fill="#1e1e1e" d="M 1.57,-1.57 Q 1.57,-1.57 1.77,-1.27 1.98,-0.98 2.09,-0.64 2.20,-0.29 2.19,0.05 2.18,0.41 2.05,0.75 1.93,1.09 1.70,1.37 1.48,1.65 1.18,1.84 0.87,2.04 0.52,2.12 0.18,2.21 -0.17,2.18 -0.53,2.15 -0.86,2.01 -1.19,1.87 -1.46,1.63 -1.73,1.39 -1.90,1.07 -2.08,0.76 -2.15,0.41 -2.21,0.05 -2.17,-0.29 -2.12,-0.65 -1.96,-0.97 -1.80,-1.29 -1.54,-1.54 -1.29,-1.80 -0.97,-1.96 -0.65,-2.12 -0.29,-2.17 0.06,-2.21 0.41,-2.15 0.76,-2.08 1.07,-1.90 1.39,-1.73 1.63,-1.46 1.87,-1.19 2.01,-0.86 2.15,-0.53 2.18,-0.17 2.21,0.18 2.12,0.52 2.03,0.87 1.84,1.18 1.65,1.48 1.37,1.70 1.09,1.93 0.75,2.05 0.41,2.18 0.05,2.19 -0.30,2.20 -0.64,2.09 -0.98,1.98 -1.27,1.77 -1.57,1.56 -1.57,1.57 -1.57,1.57 -1.73,1.35 -1.90,1.14 -2.01,0.90 -2.12,0.66 -2.16,0.39 -2.21,0.13 -2.20,-0.13 -2.18,-0.40 -2.10,-0.65 -2.02,-0.91 -1.88,-1.14 -1.74,-1.36 -1.55,-1.55 -1.36,-1.74 -1.14,-1.88 -0.91,-2.02 -0.65,-2.10 -0.40,-2.18 -0.13,-2.20 0.13,-2.21 0.39,-2.16 0.66,-2.12 0.90,-2.01 1.14,-1.90 1.35,-1.73 1.57,-1.57 1.57,-1.57 L 1.57,-1.57 Z"></path></g><g transform="translate(1709.1836072889444 421.2449096054479) rotate(0 1.7443851571463256 0)" stroke="none"><path fill="#1e1e1e" d="M 2.12,-0.66 Q 2.12,-0.66 2.15,-0.13 2.18,0.40 1.96,0.88 1.74,1.36 1.32,1.69 0.91,2.02 0.38,2.12 -0.13,2.21 -0.64,2.05 -1.14,1.90 -1.52,1.52 -1.90,1.14 -2.05,0.64 -2.21,0.13 -2.12,-0.38 -2.02,-0.91 -1.69,-1.32 -1.36,-1.74 -0.88,-1.96 -0.39,-2.18 0.13,-2.15 0.66,-2.11 1.11,-1.84 1.57,-1.56 1.84,-1.11 L 2.12,-0.66 Z"></path></g></svg>